<?xml version="1.0" encoding="UTF-8" standalone="no"?>
<!-- Created with Inkscape (http://www.inkscape.org/) -->

<svg
   xmlns:dc="http://purl.org/dc/elements/1.1/"
   xmlns:cc="http://creativecommons.org/ns#"
   xmlns:rdf="http://www.w3.org/1999/02/22-rdf-syntax-ns#"
   xmlns:svg="http://www.w3.org/2000/svg"
   xmlns="http://www.w3.org/2000/svg"
   xmlns:sodipodi="http://sodipodi.sourceforge.net/DTD/sodipodi-0.dtd"
   xmlns:inkscape="http://www.inkscape.org/namespaces/inkscape"
   width="262"
   height="60"
   id="svg3486"
   version="1.1"
   inkscape:version="0.48.5 r10040"
   sodipodi:docname="codigoalvo-700.svg">
  <defs
     id="defs3488" />
  <sodipodi:namedview
     id="base"
     pagecolor="#ffffff"
     bordercolor="#666666"
     borderopacity="1.0"
     inkscape:pageopacity="0.0"
     inkscape:pageshadow="2"
     inkscape:zoom="1.4"
     inkscape:cx="104.23535"
     inkscape:cy="134.7539"
     inkscape:document-units="px"
     inkscape:current-layer="layer1"
     showgrid="false"
     height="300px"
     inkscape:window-width="728"
     inkscape:window-height="664"
     inkscape:window-x="244"
     inkscape:window-y="182"
     inkscape:window-maximized="0" />
  <metadata
     id="metadata3491">
    <rdf:RDF>
      <cc:Work
         rdf:about="">
        <dc:format>image/svg+xml</dc:format>
        <dc:type
           rdf:resource="http://purl.org/dc/dcmitype/StillImage" />
        <dc:title></dc:title>
      </cc:Work>
    </rdf:RDF>
  </metadata>
  <g
     inkscape:label="Layer 1"
     inkscape:groupmode="layer"
     id="layer1"
     transform="translate(0,-992.36218)">
    <g
       id="g3601"
       transform="matrix(0.29572916,0,0,0.29572916,29.166491,938.06197)">
      <path
         class="fil0"
         d="m 343.08623,371.14957 0,-12.18189 c 0,-0.94004 0.15519,-1.82657 0.46559,-2.65996 0.31039,-0.83338 0.7448,-1.55586 1.30323,-2.16779 0.55842,-0.61158 1.23236,-1.09489 2.02145,-1.44957 0.7891,-0.35469 1.65366,-0.53185 2.59335,-0.53185 0.92197,0 1.77342,0.17716 2.55366,0.53185 0.78024,0.35468 1.44957,0.83799 2.00799,1.44957 0.55878,0.61193 0.99319,1.33441 1.30323,2.16779 0.31039,0.83339 0.46559,1.71992 0.46559,2.65996 0,0.86882 -0.15059,1.71106 -0.45213,2.52673 -0.30153,0.81567 -0.72248,1.5339 -1.26354,2.15469 -0.54071,0.62043 -1.19232,1.12146 -1.95484,1.50272 -0.76252,0.38126 -1.59591,0.57189 -2.50016,0.57189 -0.35468,0 -0.70051,-0.04 -1.03748,-0.11977 -0.33697,-0.0797 -0.67394,-0.16405 -1.0109,-0.25264 l 0,-3.59078 c 0.2661,0.12401 0.54531,0.22145 0.83799,0.29267 0.29268,0.0709 0.62504,0.1063 0.99744,0.1063 0.86882,0 1.58279,-0.29693 2.14122,-0.89114 0.55842,-0.59386 0.83799,-1.36984 0.83799,-2.32724 0,-0.95776 -0.27496,-1.73339 -0.82488,-2.3276 -0.54957,-0.59386 -1.23236,-0.89079 -2.04803,-0.89079 -0.90425,0 -1.63559,0.29693 -2.19437,0.89079 -0.55843,0.59421 -0.83764,1.36984 -0.83764,2.3276 l 0,12.20846 -3.40476,0 z"
         id="path3197"
         inkscape:connector-curvature="0"
         style="fill:#656565;fill-rule:nonzero" />
      <path
         id="path3199"
         class="fil0"
         d="m 357.87599,365.40445 0,-12.92704 3.21839,0 0,2.44736 0.0532,0 c 0.30153,-0.85146 0.74055,-1.49847 1.31669,-1.94173 0.57649,-0.44327 1.22811,-0.66508 1.9552,-0.66508 l 0.71787,0 0,3.61736 -0.82453,0 c -0.8511,0 -1.5339,0.27496 -2.04803,0.82453 -0.51413,0.54992 -0.77138,1.3213 -0.77138,2.31413 l 0,6.33047 -3.61736,0 z"
         inkscape:connector-curvature="0"
         style="fill:#656565;fill-rule:nonzero" />
      <path
         id="path3201"
         class="fil0"
         d="m 379.66024,359.92508 c -0.1598,0.86882 -0.44327,1.66252 -0.85146,2.38075 -0.40783,0.71823 -0.91311,1.3298 -1.51582,1.83508 -0.60307,0.50563 -1.29473,0.89575 -2.07496,1.17035 -0.78024,0.27496 -1.62248,0.41245 -2.52673,0.41245 -1.01056,0 -1.91941,-0.18178 -2.72623,-0.54532 -0.80681,-0.36354 -1.49421,-0.8511 -2.06149,-1.46303 -0.56728,-0.61158 -1.00169,-1.3298 -1.30323,-2.15433 -0.30153,-0.82453 -0.45213,-1.69795 -0.45213,-2.61992 0,-0.92233 0.1506,-1.7954 0.45213,-2.61992 0.30154,-0.82453 0.73595,-1.54276 1.30323,-2.15469 0.56728,-0.61157 1.25468,-1.09949 2.06149,-1.46268 0.80682,-0.36354 1.71567,-0.54531 2.72623,-0.54531 0.86881,0 1.6448,0.1063 2.32724,0.3189 0.68279,0.21295 1.28126,0.49677 1.79539,0.85145 0.51449,0.35433 0.9489,0.76252 1.30359,1.22351 0.35468,0.46098 0.63815,0.93968 0.8511,1.4361 l -6.57,4.92094 -1.64906,-2.15468 3.37819,-2.60646 c -0.17752,-0.19523 -0.41244,-0.34157 -0.70512,-0.43901 -0.29232,-0.0974 -0.61618,-0.14634 -0.97086,-0.14634 -0.42555,0 -0.81567,0.0886 -1.17,0.2661 -0.35469,0.17717 -0.66083,0.42095 -0.91772,0.73134 -0.25724,0.31039 -0.45673,0.66933 -0.59846,1.07716 -0.14209,0.40784 -0.21296,0.8426 -0.21296,1.30359 0,0.40783 0.0755,0.81106 0.22607,1.21004 0.15094,0.39897 0.36815,0.75826 0.65161,1.07716 0.28382,0.31925 0.62504,0.58075 1.02402,0.78484 0.39897,0.20374 0.85571,0.30579 1.36984,0.30579 0.85146,0 1.5959,-0.24378 2.23441,-0.73134 0.6385,-0.48756 1.02862,-1.1661 1.17035,-2.03492 l 3.43134,0.3724 z"
         inkscape:connector-curvature="0"
         style="fill:#656565;fill-rule:nonzero" />
      <path
         id="path3203"
         class="fil0"
         d="m 389.84725,355.88217 -2.26099,0 c -0.9574,0 -1.71106,0.28382 -2.26062,0.8511 -0.54993,0.56764 -0.82453,1.30323 -0.82453,2.20784 0,0.90425 0.2746,1.64019 0.82453,2.20748 0.54956,0.56763 1.30322,0.8511 2.26062,0.8511 l 2.26099,0 0,3.40476 -2.36728,0 c -0.99284,0 -1.88398,-0.15059 -2.67308,-0.45212 -0.78909,-0.30154 -1.45842,-0.73134 -2.00834,-1.29012 -0.54957,-0.55843 -0.97087,-1.23697 -1.26319,-2.03492 -0.29268,-0.79795 -0.43902,-1.69335 -0.43902,-2.68618 0,-0.99319 0.14634,-1.88859 0.43902,-2.68654 0.29232,-0.79795 0.71362,-1.47614 1.26319,-2.03492 0.54992,-0.55842 1.21925,-0.98858 2.00834,-1.28976 0.7891,-0.30154 1.68024,-0.45248 2.67308,-0.45248 l 2.36728,0 0,3.40476 z"
         inkscape:connector-curvature="0"
         style="fill:#656565;fill-rule:nonzero" />
      <path
         id="path3205"
         class="fil0"
         d="m 393.59607,346.46619 c 0.56764,0 1.04634,0.18637 1.43645,0.55878 0.39012,0.3724 0.58536,0.90425 0.58536,1.5959 0,0.6913 -0.19524,1.2235 -0.58536,1.59591 -0.39011,0.3724 -0.86881,0.55842 -1.43645,0.55842 -0.56729,0 -1.04599,-0.18602 -1.4361,-0.55842 -0.39012,-0.37241 -0.58536,-0.90461 -0.58536,-1.59591 0,-0.69165 0.19524,-1.2235 0.58536,-1.5959 0.39011,-0.37241 0.86881,-0.55878 1.4361,-0.55878 z m -1.70221,18.93826 0,-12.92704 3.40477,0 0,12.92704 -3.40477,0 z"
         inkscape:connector-curvature="0"
         style="fill:#656565;fill-rule:nonzero" />
      <path
         id="path3207"
         class="fil0"
         d="m 397.16063,362.21264 4.38874,0 c 0.3189,0 0.55843,-0.0709 0.71788,-0.21295 0.1598,-0.14173 0.23953,-0.31004 0.23953,-0.50528 0,-0.2661 -0.12863,-0.50527 -0.38552,-0.71822 -0.25724,-0.2126 -0.58074,-0.42556 -0.97086,-0.63815 -0.39012,-0.21296 -0.80681,-0.43016 -1.25043,-0.65162 -0.44327,-0.22181 -0.85997,-0.48331 -1.25008,-0.78484 -0.39012,-0.30154 -0.71363,-0.64736 -0.97087,-1.03713 -0.25689,-0.39011 -0.38551,-0.85145 -0.38551,-1.3833 0,-0.69166 0.11516,-1.28126 0.34583,-1.76882 0.23031,-0.48756 0.53645,-0.88229 0.91771,-1.18347 0.38126,-0.30153 0.82453,-0.51874 1.32981,-0.65197 0.50527,-0.13287 1.04173,-0.19948 1.60901,-0.19948 l 4.09642,0 0,3.19181 -3.93662,0 c -0.21295,0 -0.40783,0.0312 -0.58535,0.0932 -0.17717,0.062 -0.26575,0.22606 -0.26575,0.49216 0,0.19488 0.13748,0.38126 0.41209,0.55843 0.27496,0.17752 0.61193,0.36354 1.0109,0.55878 0.39898,0.19488 0.83764,0.41208 1.3167,0.65161 0.4787,0.23953 0.91736,0.51874 1.31634,0.83799 0.39897,0.3189 0.73594,0.6913 1.0109,1.11685 0.27496,0.42555 0.41244,0.92233 0.41244,1.48961 0,0.6385 -0.1109,1.20579 -0.33271,1.7022 -0.22146,0.49678 -0.53186,0.90886 -0.93083,1.23697 -0.39898,0.32811 -0.86457,0.57614 -1.39642,0.74481 -0.5322,0.1683 -1.09949,0.25263 -1.7022,0.25263 l -4.76115,0 0,-3.19181 z"
         inkscape:connector-curvature="0"
         style="fill:#656565;fill-rule:nonzero" />
      <path
         id="path3209"
         class="fil0"
         d="m 419.31693,347.05154 c -0.0709,0.40783 -0.17716,0.80681 -0.31925,1.19693 -0.14173,0.39012 -0.33236,0.73594 -0.57153,1.03713 -0.23953,0.30153 -0.5276,0.54531 -0.86457,0.73169 -0.33697,0.18602 -0.73595,0.27921 -1.19693,0.27921 -0.31925,0 -0.65161,-0.0489 -0.99744,-0.14634 -0.34583,-0.0974 -0.69165,-0.20834 -1.03748,-0.33236 -0.34583,-0.12437 -0.67819,-0.23492 -0.99744,-0.33272 -0.31925,-0.0974 -0.61158,-0.14598 -0.87768,-0.14598 -0.33697,0 -0.59846,0.1063 -0.78449,0.3189 -0.18638,0.21295 -0.315,0.47905 -0.38586,0.79795 l -1.70221,0 c 0.0531,-0.42555 0.15945,-0.83339 0.31925,-1.2235 0.15945,-0.39012 0.36319,-0.7402 0.61158,-1.05059 0.24838,-0.3104 0.54957,-0.55843 0.90425,-0.74481 0.35469,-0.18602 0.76252,-0.27921 1.2235,-0.27921 0.35469,0 0.70512,0.0531 1.05095,0.15945 0.34547,0.10665 0.67819,0.22181 0.99744,0.34583 0.3189,0.12437 0.62043,0.23952 0.90425,0.34582 0.28382,0.1063 0.53185,0.15981 0.74481,0.15981 0.33696,0 0.61618,-0.11091 0.83763,-0.33272 0.22181,-0.22146 0.35929,-0.48295 0.41244,-0.78449 l 1.72878,0 z m -2.26063,18.35291 0,-7.28787 c 0,-0.78024 -0.27071,-1.40102 -0.81141,-1.86201 -0.54071,-0.46098 -1.28126,-0.69165 -2.22095,-0.69165 -0.40783,0 -0.78484,0.0886 -1.13031,0.2661 -0.34583,0.17717 -0.64737,0.41669 -0.90461,0.71823 -0.25689,0.30118 -0.46098,0.65586 -0.61157,1.0637 -0.15095,0.40783 -0.22607,0.85146 -0.22607,1.33016 0,0.42555 0.0751,0.82878 0.22607,1.21004 0.15059,0.38126 0.35893,0.71397 0.62503,0.99744 0.26611,0.28382 0.58075,0.50563 0.9443,0.66508 0.36354,0.15944 0.75791,0.23952 1.18346,0.23952 0.3724,0 0.70937,-0.0358 1.01091,-0.10665 0.30153,-0.0709 0.61157,-0.16831 0.93082,-0.29232 l 0,3.53728 c -0.39012,0.0889 -0.75791,0.16406 -1.10374,0.22642 -0.34582,0.062 -0.6959,0.0928 -1.05059,0.0928 -0.99319,0 -1.87547,-0.17716 -2.64649,-0.53185 -0.77138,-0.35468 -1.41874,-0.82913 -1.94174,-1.42299 -0.52334,-0.59421 -0.91771,-1.27665 -1.18381,-2.04803 -0.26611,-0.77138 -0.39898,-1.5828 -0.39898,-2.4339 0,-1.02862 0.16405,-1.96831 0.49216,-2.81941 0.32811,-0.8511 0.77563,-1.58279 1.34327,-2.19437 0.56729,-0.61193 1.23662,-1.08177 2.00799,-1.40988 0.77138,-0.32776 1.60052,-0.49181 2.48705,-0.49181 0.97547,0 1.85315,0.14634 2.63339,0.43866 0.78023,0.29268 1.44956,0.69591 2.00799,1.21039 0.55878,0.51414 0.98858,1.12607 1.29012,1.83508 0.30153,0.70937 0.45212,1.48075 0.45212,2.31414 l 0,7.44767 -3.40441,0 z"
         inkscape:connector-curvature="0"
         style="fill:#656565;fill-rule:nonzero" />
      <path
         id="path3211"
         class="fil0"
         d="m 429.07874,355.56292 c -0.95775,0 -1.72027,0.29268 -2.28755,0.87768 -0.56764,0.58535 -0.85111,1.41874 -0.85111,2.50051 0,1.08141 0.28347,1.91515 0.85111,2.50015 0.56728,0.585 1.3298,0.87768 2.28755,0.87768 0.95741,0 1.71993,-0.29268 2.28721,-0.87768 0.56764,-0.585 0.85146,-1.41874 0.85146,-2.50015 0,-1.08177 -0.28382,-1.91516 -0.85146,-2.50051 -0.56728,-0.585 -1.3298,-0.87768 -2.28721,-0.87768 z m 0,-3.40441 c 1.01056,0 1.91941,0.18177 2.72622,0.54531 0.80682,0.36319 1.49386,0.85111 2.0615,1.46268 0.56728,0.61193 1.00169,1.33016 1.30323,2.15469 0.30153,0.82452 0.45212,1.69759 0.45212,2.61992 0,0.92197 -0.15059,1.79539 -0.45212,2.61992 -0.30154,0.82453 -0.73595,1.54275 -1.30323,2.15433 -0.56764,0.61193 -1.25468,1.09949 -2.0615,1.46303 -0.80681,0.36354 -1.71566,0.54532 -2.72622,0.54532 -1.0109,0 -1.91976,-0.18178 -2.72657,-0.54532 -0.80681,-0.36354 -1.49386,-0.8511 -2.06114,-1.46303 -0.56764,-0.61158 -1.00205,-1.3298 -1.30358,-2.15433 -0.30119,-0.82453 -0.45213,-1.69795 -0.45213,-2.61992 0,-0.92233 0.15094,-1.7954 0.45213,-2.61992 0.30153,-0.82453 0.73594,-1.54276 1.30358,-2.15469 0.56728,-0.61157 1.25433,-1.09949 2.06114,-1.46268 0.80681,-0.36354 1.71567,-0.54531 2.72657,-0.54531 z"
         inkscape:connector-curvature="0"
         style="fill:#656565;fill-rule:nonzero" />
      <path
         id="path3213"
         class="fil0"
         d="m 458.01693,359.92508 c -0.1598,0.86882 -0.44327,1.66252 -0.85145,2.38075 -0.40784,0.71823 -0.91311,1.3298 -1.51583,1.83508 -0.60307,0.50563 -1.29473,0.89575 -2.07496,1.17035 -0.78024,0.27496 -1.62248,0.41245 -2.52673,0.41245 -1.01055,0 -1.91941,-0.18178 -2.72622,-0.54532 -0.80682,-0.36354 -1.49422,-0.8511 -2.0615,-1.46303 -0.56728,-0.61158 -1.00169,-1.3298 -1.30323,-2.15433 -0.30153,-0.82453 -0.45212,-1.69795 -0.45212,-2.61992 0,-0.92233 0.15059,-1.7954 0.45212,-2.61992 0.30154,-0.82453 0.73595,-1.54276 1.30323,-2.15469 0.56728,-0.61157 1.25468,-1.09949 2.0615,-1.46268 0.80681,-0.36354 1.71567,-0.54531 2.72622,-0.54531 0.86882,0 1.6448,0.1063 2.32724,0.3189 0.6828,0.21295 1.28126,0.49677 1.79539,0.85145 0.51449,0.35433 0.9489,0.76252 1.30359,1.22351 0.35468,0.46098 0.63815,0.93968 0.8511,1.4361 l -6.57,4.92094 -1.64906,-2.15468 3.37819,-2.60646 c -0.17752,-0.19523 -0.41244,-0.34157 -0.70512,-0.43901 -0.29232,-0.0974 -0.61618,-0.14634 -0.97086,-0.14634 -0.42555,0 -0.81567,0.0886 -1.17,0.2661 -0.35469,0.17717 -0.66083,0.42095 -0.91772,0.73134 -0.25724,0.31039 -0.45673,0.66933 -0.59846,1.07716 -0.14209,0.40784 -0.21295,0.8426 -0.21295,1.30359 0,0.40783 0.0755,0.81106 0.22606,1.21004 0.15094,0.39897 0.36815,0.75826 0.65161,1.07716 0.28382,0.31925 0.62504,0.58075 1.02402,0.78484 0.39897,0.20374 0.85571,0.30579 1.36984,0.30579 0.85146,0 1.59591,-0.24378 2.23441,-0.73134 0.6385,-0.48756 1.02862,-1.1661 1.17035,-2.03492 l 3.43134,0.3724 z"
         inkscape:connector-curvature="0"
         style="fill:#656565;fill-rule:nonzero" />
      <path
         id="path3215"
         class="fil0"
         d="m 459.93386,365.40445 0,-8.93728 c 0,-0.70902 0.12862,-1.3298 0.38587,-1.86165 0.25689,-0.53221 0.61618,-0.97973 1.07716,-1.34327 0.46099,-0.36354 1.01516,-0.63851 1.66252,-0.82453 0.64701,-0.18638 1.36985,-0.27921 2.1678,-0.27921 0.6913,0 1.38756,0.19063 2.08771,0.57189 0.70052,0.38126 1.29012,0.84649 1.76882,1.39642 1.09949,-1.31245 2.46473,-1.96831 4.09642,-1.96831 0.63815,0 1.25008,0.0928 1.83508,0.27921 0.58535,0.18602 1.10374,0.46099 1.55622,0.82453 0.45213,0.36354 0.81567,0.81106 1.09028,1.34327 0.27496,0.53185 0.41244,1.15263 0.41244,1.86165 l 0,8.93728 -3.56422,0 0,-7.76693 c 0,-0.67358 -0.15519,-1.18807 -0.46559,-1.5424 -0.31039,-0.35468 -0.77563,-0.5322 -1.39641,-0.5322 -0.31926,0.0177 -0.64701,0.1109 -0.98398,0.27921 -0.33697,0.16866 -0.62965,0.47445 -0.87768,0.91772 l 0,8.6446 -3.56421,0 0,-7.76693 c 0,-0.67358 -0.1552,-1.18807 -0.46559,-1.5424 -0.31039,-0.35468 -0.77598,-0.5322 -1.39642,-0.5322 -0.62079,0 -1.08602,0.17752 -1.39642,0.5322 -0.31039,0.35433 -0.46559,0.86882 -0.46559,1.5424 l 0,7.76693 -3.56421,0 z"
         inkscape:connector-curvature="0"
         style="fill:#656565;fill-rule:nonzero" />
      <path
         id="path3217"
         class="fil0"
         d="m 493.63425,352.47741 0,3.29846 -2.47358,0 0,4.78772 c 0,0.4787 0.1063,0.83764 0.31925,1.07716 0.2126,0.23953 0.49642,0.35894 0.85111,0.35894 l 1.30322,0 0,3.40476 -1.78192,0 c -0.78024,0 -1.43185,-0.1109 -1.9552,-0.33236 -0.52299,-0.22181 -0.94394,-0.54106 -1.26319,-0.95775 -0.31925,-0.4167 -0.54532,-0.91312 -0.67819,-1.48961 -0.13323,-0.57614 -0.19949,-1.22776 -0.19949,-1.95484 l 0,-11.65004 3.40441,0 0,3.45756 2.47358,0 z"
         inkscape:connector-curvature="0"
         style="fill:#656565;fill-rule:nonzero" />
      <path
         id="path3219"
         class="fil0"
         d="m 508.28937,359.92508 c -0.1598,0.86882 -0.44327,1.66252 -0.85145,2.38075 -0.40784,0.71823 -0.91311,1.3298 -1.51583,1.83508 -0.60307,0.50563 -1.29473,0.89575 -2.07496,1.17035 -0.78024,0.27496 -1.62248,0.41245 -2.52673,0.41245 -1.01056,0 -1.91941,-0.18178 -2.72622,-0.54532 -0.80682,-0.36354 -1.49422,-0.8511 -2.0615,-1.46303 -0.56728,-0.61158 -1.00169,-1.3298 -1.30323,-2.15433 -0.30153,-0.82453 -0.45212,-1.69795 -0.45212,-2.61992 0,-0.92233 0.15059,-1.7954 0.45212,-2.61992 0.30154,-0.82453 0.73595,-1.54276 1.30323,-2.15469 0.56728,-0.61157 1.25468,-1.09949 2.0615,-1.46268 0.80681,-0.36354 1.71566,-0.54531 2.72622,-0.54531 0.86881,0 1.6448,0.1063 2.32724,0.3189 0.6828,0.21295 1.28126,0.49677 1.79539,0.85145 0.51449,0.35433 0.9489,0.76252 1.30359,1.22351 0.35468,0.46098 0.63815,0.93968 0.8511,1.4361 l -6.57,4.92094 -1.64906,-2.15468 3.37819,-2.60646 c -0.17752,-0.19523 -0.41244,-0.34157 -0.70512,-0.43901 -0.29232,-0.0974 -0.61618,-0.14634 -0.97086,-0.14634 -0.42555,0 -0.81567,0.0886 -1.17,0.2661 -0.35469,0.17717 -0.66083,0.42095 -0.91772,0.73134 -0.25724,0.31039 -0.45673,0.66933 -0.59846,1.07716 -0.14209,0.40784 -0.21296,0.8426 -0.21296,1.30359 0,0.40783 0.0755,0.81106 0.22607,1.21004 0.15094,0.39897 0.36815,0.75826 0.65161,1.07716 0.28382,0.31925 0.62504,0.58075 1.02402,0.78484 0.39897,0.20374 0.85571,0.30579 1.36984,0.30579 0.85146,0 1.59591,-0.24378 2.23441,-0.73134 0.6385,-0.48756 1.02862,-1.1661 1.17035,-2.03492 l 3.43134,0.3724 z"
         inkscape:connector-curvature="0"
         style="fill:#656565;fill-rule:nonzero" />
      <path
         id="path3221"
         class="fil0"
         d="m 518.47638,355.88217 -2.26098,0 c -0.95741,0 -1.71107,0.28382 -2.26063,0.8511 -0.54993,0.56764 -0.82453,1.30323 -0.82453,2.20784 0,0.90425 0.2746,1.64019 0.82453,2.20748 0.54956,0.56763 1.30322,0.8511 2.26063,0.8511 l 2.26098,0 0,3.40476 -2.36728,0 c -0.99284,0 -1.88398,-0.15059 -2.67307,-0.45212 -0.7891,-0.30154 -1.45843,-0.73134 -2.00835,-1.29012 -0.54957,-0.55843 -0.97087,-1.23697 -1.26319,-2.03492 -0.29268,-0.79795 -0.43902,-1.69335 -0.43902,-2.68618 0,-0.99319 0.14634,-1.88859 0.43902,-2.68654 0.29232,-0.79795 0.71362,-1.47614 1.26319,-2.03492 0.54992,-0.55842 1.21925,-0.98858 2.00835,-1.28976 0.78909,-0.30154 1.68023,-0.45248 2.67307,-0.45248 l 2.36728,0 0,3.40476 z"
         inkscape:connector-curvature="0"
         style="fill:#656565;fill-rule:nonzero" />
      <path
         id="path3223"
         class="fil0"
         d="m 520.57756,365.40445 0,-8.93728 c 0,-0.70902 0.12862,-1.3298 0.38587,-1.86165 0.25689,-0.53221 0.62043,-0.97973 1.09063,-1.34327 0.46984,-0.36354 1.03287,-0.63851 1.68874,-0.82453 0.65622,-0.18638 1.3833,-0.27921 2.18126,-0.27921 0.79795,0 1.52504,0.0928 2.1809,0.27921 0.65622,0.18602 1.21925,0.46099 1.6891,0.82453 0.46984,0.36354 0.83338,0.81106 1.09063,1.34327 0.25689,0.53185 0.38551,1.15263 0.38551,1.86165 l 0,8.93728 -3.40441,0 0,-7.76693 c 0,-0.67358 -0.16866,-1.18807 -0.50563,-1.5424 -0.33661,-0.35468 -0.81567,-0.5322 -1.4361,-0.5322 -0.62079,0 -1.09949,0.17752 -1.43646,0.5322 -0.33697,0.35433 -0.50528,0.86882 -0.50528,1.5424 l 0,7.76693 -3.40476,0 z"
         inkscape:connector-curvature="0"
         style="fill:#656565;fill-rule:nonzero" />
      <path
         id="path3225"
         class="fil0"
         d="m 539.97008,355.56292 c -0.95776,0 -1.72028,0.29268 -2.28756,0.87768 -0.56764,0.58535 -0.8511,1.41874 -0.8511,2.50051 0,1.08141 0.28346,1.91515 0.8511,2.50015 0.56728,0.585 1.3298,0.87768 2.28756,0.87768 0.9574,0 1.71992,-0.29268 2.2872,-0.87768 0.56764,-0.585 0.85146,-1.41874 0.85146,-2.50015 0,-1.08177 -0.28382,-1.91516 -0.85146,-2.50051 -0.56728,-0.585 -1.3298,-0.87768 -2.2872,-0.87768 z m 0,-3.40441 c 1.01055,0 1.91941,0.18177 2.72622,0.54531 0.80681,0.36319 1.49386,0.85111 2.0615,1.46268 0.56728,0.61193 1.00169,1.33016 1.30322,2.15469 0.30154,0.82452 0.45213,1.69759 0.45213,2.61992 0,0.92197 -0.15059,1.79539 -0.45213,2.61992 -0.30153,0.82453 -0.73594,1.54275 -1.30322,2.15433 -0.56764,0.61193 -1.25469,1.09949 -2.0615,1.46303 -0.80681,0.36354 -1.71567,0.54532 -2.72622,0.54532 -1.01091,0 -1.91976,-0.18178 -2.72657,-0.54532 -0.80682,-0.36354 -1.49386,-0.8511 -2.06115,-1.46303 -0.56763,-0.61158 -1.00204,-1.3298 -1.30358,-2.15433 -0.30118,-0.82453 -0.45212,-1.69795 -0.45212,-2.61992 0,-0.92233 0.15094,-1.7954 0.45212,-2.61992 0.30154,-0.82453 0.73595,-1.54276 1.30358,-2.15469 0.56729,-0.61157 1.25433,-1.09949 2.06115,-1.46268 0.80681,-0.36354 1.71566,-0.54531 2.72657,-0.54531 z"
         inkscape:connector-curvature="0"
         style="fill:#656565;fill-rule:nonzero" />
      <polygon
         id="polygon3227"
         class="fil0"
         points="201.531,83.3614 202.492,83.3614 202.492,88.6161 201.531,88.6161 "
         style="fill:#656565;fill-rule:nonzero"
         transform="matrix(3.543307,0,0,3.543307,-165.474,51.410409)" />
      <path
         id="path3229"
         class="fil0"
         d="m 560.66299,355.56292 c -0.95775,0 -1.72027,0.29268 -2.28756,0.87768 -0.56763,0.58535 -0.8511,1.41874 -0.8511,2.50051 0,1.08141 0.28347,1.91515 0.8511,2.50015 0.56729,0.585 1.32981,0.87768 2.28756,0.87768 0.9574,0 1.71992,-0.29268 2.28721,-0.87768 0.56764,-0.585 0.85145,-1.41874 0.85145,-2.50015 0,-1.08177 -0.28381,-1.91516 -0.85145,-2.50051 -0.56729,-0.585 -1.32981,-0.87768 -2.28721,-0.87768 z m 0,-3.40441 c 1.01055,0 1.91941,0.18177 2.72622,0.54531 0.80681,0.36319 1.49386,0.85111 2.0615,1.46268 0.56728,0.61193 1.00169,1.33016 1.30323,2.15469 0.30153,0.82452 0.45212,1.69759 0.45212,2.61992 0,0.92197 -0.15059,1.79539 -0.45212,2.61992 -0.30154,0.82453 -0.73595,1.54275 -1.30323,2.15433 -0.56764,0.61193 -1.25469,1.09949 -2.0615,1.46303 -0.80681,0.36354 -1.71567,0.54532 -2.72622,0.54532 -1.0109,0 -1.91976,-0.18178 -2.72657,-0.54532 -0.80681,-0.36354 -1.49386,-0.8511 -2.06114,-1.46303 -0.56764,-0.61158 -1.00205,-1.3298 -1.30359,-2.15433 -0.30118,-0.82453 -0.45212,-1.69795 -0.45212,-2.61992 0,-0.92233 0.15094,-1.7954 0.45212,-2.61992 0.30154,-0.82453 0.73595,-1.54276 1.30359,-2.15469 0.56728,-0.61157 1.25433,-1.09949 2.06114,-1.46268 0.80681,-0.36354 1.71567,-0.54531 2.72657,-0.54531 z"
         inkscape:connector-curvature="0"
         style="fill:#656565;fill-rule:nonzero" />
      <path
         id="path3231"
         class="fil0"
         d="m 570.6374,367.00036 c 0.69166,0.2661 1.35213,0.45673 1.98177,0.57189 0.62965,0.11516 1.3167,0.17291 2.0615,0.17291 0.40783,0 0.81567,-0.0312 1.2235,-0.0932 0.40784,-0.062 0.77563,-0.19488 1.10374,-0.39897 0.32811,-0.20374 0.59422,-0.48756 0.79796,-0.85111 0.20409,-0.36354 0.30578,-0.83799 0.30578,-1.42299 l 0,-6.33047 c 0,-0.53185 -0.084,-0.98858 -0.25263,-1.36984 -0.16831,-0.38126 -0.39437,-0.69591 -0.67819,-0.94429 -0.28382,-0.24804 -0.59847,-0.42981 -0.94429,-0.54532 -0.34583,-0.11516 -0.68705,-0.17291 -1.02402,-0.17291 -0.8511,0 -1.54701,0.28382 -2.08807,0.8511 -0.54071,0.56764 -0.81106,1.3213 -0.81106,2.26098 0,0.94004 0.27035,1.67563 0.81106,2.20784 0.54106,0.53185 1.23697,0.79795 2.08807,0.79795 0.42555,0 0.78449,-0.0312 1.07717,-0.0932 0.29267,-0.062 0.56303,-0.13748 0.81141,-0.22606 l 0,3.53764 c -0.35468,0.12401 -0.70051,0.2126 -1.03748,0.2661 -0.33697,0.0532 -0.62043,0.0797 -0.8511,0.0797 -0.99283,0 -1.87512,-0.16405 -2.6465,-0.49216 -0.77137,-0.32811 -1.43185,-0.78024 -1.98177,-1.35638 -0.54956,-0.5765 -0.96626,-1.26354 -1.25008,-2.0615 -0.28346,-0.79795 -0.42555,-1.66677 -0.42555,-2.60681 0,-0.93968 0.14209,-1.81311 0.42555,-2.61992 0.28382,-0.80681 0.70052,-1.50732 1.25008,-2.10118 0.54992,-0.59421 1.2104,-1.05945 1.98177,-1.39642 0.77138,-0.33696 1.65367,-0.50527 2.6465,-0.50527 0.8511,0 1.66252,0.16405 2.4339,0.49181 0.77138,0.32811 1.44071,0.77138 2.00799,1.33016 0.56764,0.55842 1.01976,1.20118 1.35673,1.92826 0.33662,0.72709 0.50528,1.48961 0.50528,2.28756 l 0,6.25075 c 0,4.46847 -2.25213,6.70252 -6.75603,6.70252 -0.69165,0 -1.38755,-0.0485 -2.08807,-0.14598 -0.70051,-0.0978 -1.3787,-0.27071 -2.03492,-0.51874 l 0,-3.48449 z"
         inkscape:connector-curvature="0"
         style="fill:#656565;fill-rule:nonzero" />
      <path
         id="path3233"
         class="fil0"
         d="m 585.79567,346.46619 c 0.56764,0 1.04634,0.18637 1.43646,0.55878 0.39011,0.3724 0.58535,0.90425 0.58535,1.5959 0,0.6913 -0.19524,1.2235 -0.58535,1.59591 -0.39012,0.3724 -0.86882,0.55842 -1.43646,0.55842 -0.56728,0 -1.04598,-0.18602 -1.4361,-0.55842 -0.39012,-0.37241 -0.58536,-0.90461 -0.58536,-1.59591 0,-0.69165 0.19524,-1.2235 0.58536,-1.5959 0.39012,-0.37241 0.86882,-0.55878 1.4361,-0.55878 z m -1.70221,18.93826 0,-12.92704 3.40477,0 0,12.92704 -3.40477,0 z"
         inkscape:connector-curvature="0"
         style="fill:#656565;fill-rule:nonzero" />
      <path
         id="path3235"
         class="fil0"
         d="m 598.90945,365.40445 0,-7.28787 c 0,-0.78024 -0.27071,-1.40102 -0.81142,-1.86201 -0.54071,-0.46098 -1.28126,-0.69165 -2.22094,-0.69165 -0.40784,0 -0.78485,0.0886 -1.13032,0.2661 -0.34583,0.17717 -0.64736,0.41669 -0.9046,0.71823 -0.25689,0.30118 -0.46099,0.65586 -0.61158,1.0637 -0.15094,0.40783 -0.22606,0.85146 -0.22606,1.33016 0,0.42555 0.0751,0.82878 0.22606,1.21004 0.15059,0.38126 0.35894,0.71397 0.62504,0.99744 0.2661,0.28382 0.58075,0.50563 0.94429,0.66508 0.36354,0.15944 0.75791,0.23952 1.18347,0.23952 0.3724,0 0.70937,-0.0358 1.0109,-0.10665 0.30154,-0.0709 0.61158,-0.16831 0.93083,-0.29232 l 0,3.53728 c -0.39012,0.0889 -0.75792,0.16406 -1.10374,0.22642 -0.34583,0.062 -0.69591,0.0928 -1.05059,0.0928 -0.99319,0 -1.87547,-0.17716 -2.6465,-0.53185 -0.77138,-0.35468 -1.41874,-0.82913 -1.94173,-1.42299 -0.52335,-0.59421 -0.91772,-1.27665 -1.18382,-2.04803 -0.2661,-0.77138 -0.39898,-1.5828 -0.39898,-2.4339 0,-1.02862 0.16406,-1.96831 0.49217,-2.81941 0.32811,-0.8511 0.77563,-1.58279 1.34327,-2.19437 0.56728,-0.61193 1.23661,-1.08177 2.00799,-1.40988 0.77138,-0.32776 1.60051,-0.49181 2.48705,-0.49181 0.97547,0 1.85315,0.14634 2.63338,0.43866 0.78024,0.29268 1.44957,0.69591 2.00799,1.21039 0.55878,0.51414 0.98859,1.12607 1.29012,1.83508 0.30154,0.70937 0.45213,1.48075 0.45213,2.31414 l 0,7.44767 -3.40441,0 z"
         inkscape:connector-curvature="0"
         style="fill:#656565;fill-rule:nonzero" />
      <path
         id="path3237"
         class="fil0"
         d="m 624.49921,346.78544 0,12.12909 c 0,0.93969 -0.15519,1.82622 -0.46559,2.65961 -0.31004,0.83338 -0.74445,1.55622 -1.30323,2.16779 -0.55842,0.61193 -1.23236,1.09524 -2.02145,1.44957 -0.7891,0.35469 -1.65366,0.53221 -2.59335,0.53221 -0.93968,0 -1.79539,-0.17752 -2.56677,-0.53221 -0.77138,-0.35433 -1.4361,-0.83764 -1.99488,-1.44957 -0.55843,-0.61157 -0.99284,-1.33441 -1.30323,-2.16779 -0.3104,-0.83339 -0.46559,-1.71992 -0.46559,-2.65961 0,-0.86917 0.15094,-1.71142 0.45212,-2.52708 0.30154,-0.81567 0.72284,-1.5339 1.26355,-2.15434 0.54071,-0.62078 1.19232,-1.12145 1.95484,-1.50271 0.76252,-0.38126 1.5959,-0.57189 2.50051,-0.57189 0.35469,0 0.70016,0.0397 1.03713,0.11941 0.33697,0.0801 0.67393,0.16405 1.0109,0.25299 l 0,3.59079 c -0.2661,-0.12437 -0.54531,-0.22181 -0.83799,-0.29268 -0.29268,-0.0709 -0.62504,-0.1063 -0.99744,-0.1063 -0.86882,0 -1.58244,0.29693 -2.14122,0.89079 -0.55843,0.59421 -0.83764,1.36984 -0.83764,2.3276 0,0.9574 0.27461,1.73338 0.82453,2.32724 0.54957,0.59421 1.23236,0.89114 2.04803,0.89114 0.90425,0 1.63595,-0.29693 2.19437,-0.89114 0.55843,-0.59386 0.83799,-1.36984 0.83799,-2.32724 l 0,-12.15567 3.40441,0 z"
         inkscape:connector-curvature="0"
         style="fill:#656565;fill-rule:nonzero" />
      <path
         id="path3239"
         class="fil0"
         d="m 635.88386,365.40445 0,-7.28787 c 0,-0.78024 -0.27071,-1.40102 -0.81142,-1.86201 -0.54071,-0.46098 -1.28126,-0.69165 -2.22094,-0.69165 -0.40784,0 -0.78485,0.0886 -1.13032,0.2661 -0.34583,0.17717 -0.64736,0.41669 -0.90461,0.71823 -0.25689,0.30118 -0.46098,0.65586 -0.61157,1.0637 -0.15095,0.40783 -0.22606,0.85146 -0.22606,1.33016 0,0.42555 0.0751,0.82878 0.22606,1.21004 0.15059,0.38126 0.35894,0.71397 0.62504,0.99744 0.2661,0.28382 0.58075,0.50563 0.94429,0.66508 0.36354,0.15944 0.75791,0.23952 1.18346,0.23952 0.37241,0 0.70937,-0.0358 1.01091,-0.10665 0.30154,-0.0709 0.61157,-0.16831 0.93083,-0.29232 l 0,3.53728 c -0.39012,0.0889 -0.75792,0.16406 -1.10374,0.22642 -0.34583,0.062 -0.69591,0.0928 -1.05059,0.0928 -0.99319,0 -1.87548,-0.17716 -2.6465,-0.53185 -0.77138,-0.35468 -1.41874,-0.82913 -1.94173,-1.42299 -0.52335,-0.59421 -0.91772,-1.27665 -1.18382,-2.04803 -0.2661,-0.77138 -0.39898,-1.5828 -0.39898,-2.4339 0,-1.02862 0.16406,-1.96831 0.49217,-2.81941 0.32811,-0.8511 0.77563,-1.58279 1.34327,-2.19437 0.56728,-0.61193 1.23661,-1.08177 2.00799,-1.40988 0.77138,-0.32776 1.60051,-0.49181 2.48704,-0.49181 0.97548,0 1.85315,0.14634 2.63339,0.43866 0.78024,0.29268 1.44957,0.69591 2.00799,1.21039 0.55878,0.51414 0.98859,1.12607 1.29012,1.83508 0.30154,0.70937 0.45213,1.48075 0.45213,2.31414 l 0,7.44767 -3.40441,0 z"
         inkscape:connector-curvature="0"
         style="fill:#656565;fill-rule:nonzero" />
      <path
         id="path3241"
         class="fil0"
         d="m 650.85787,346.46619 c 0.56764,0 1.04634,0.18637 1.43646,0.55878 0.39012,0.3724 0.58535,0.90425 0.58535,1.5959 0,0.6913 -0.19523,1.2235 -0.58535,1.59591 -0.39012,0.3724 -0.86882,0.55842 -1.43646,0.55842 -0.56728,0 -1.04598,-0.18602 -1.4361,-0.55842 -0.39012,-0.37241 -0.58535,-0.90461 -0.58535,-1.59591 0,-0.69165 0.19523,-1.2235 0.58535,-1.5959 0.39012,-0.37241 0.86882,-0.55878 1.4361,-0.55878 z m -1.7022,18.93826 0,-12.92704 3.40476,0 0,12.92704 -3.40476,0 z"
         inkscape:connector-curvature="0"
         style="fill:#656565;fill-rule:nonzero" />
      <path
         id="path3243"
         class="fil0"
         d="m 655.11338,365.40445 0,-8.93728 c 0,-0.70902 0.12863,-1.3298 0.38587,-1.86165 0.25689,-0.53221 0.62043,-0.97973 1.09063,-1.34327 0.46984,-0.36354 1.03287,-0.63851 1.68874,-0.82453 0.65622,-0.18638 1.38331,-0.27921 2.18126,-0.27921 0.79795,0 1.52504,0.0928 2.18091,0.27921 0.65622,0.18602 1.21925,0.46099 1.68909,0.82453 0.46984,0.36354 0.83339,0.81106 1.09063,1.34327 0.25689,0.53185 0.38551,1.15263 0.38551,1.86165 l 0,8.93728 -3.40441,0 0,-7.76693 c 0,-0.67358 -0.16866,-1.18807 -0.50563,-1.5424 -0.33661,-0.35468 -0.81567,-0.5322 -1.4361,-0.5322 -0.62079,0 -1.09949,0.17752 -1.43646,0.5322 -0.33696,0.35433 -0.50527,0.86882 -0.50527,1.5424 l 0,7.76693 -3.40477,0 z"
         inkscape:connector-curvature="0"
         style="fill:#656565;fill-rule:nonzero" />
      <path
         id="path3245"
         class="fil0"
         d="m 668.19882,365.40445 0,-12.98019 c 0,-0.72709 0.0709,-1.43185 0.2126,-2.11465 0.14208,-0.68244 0.39472,-1.28551 0.75826,-1.8085 0.36355,-0.52299 0.8465,-0.93969 1.44957,-1.25008 0.60272,-0.3104 1.36524,-0.46559 2.28756,-0.46559 l 1.35638,0 0,3.40476 -1.32981,0 c -0.40783,0 -0.73169,0.0928 -0.97086,0.27921 -0.23953,0.18603 -0.35929,0.5276 -0.35929,1.02402 l 0,0.98398 2.65996,0 0,3.29846 -2.65996,0 0,9.62858 -3.40441,0 z"
         inkscape:connector-curvature="0"
         style="fill:#656565;fill-rule:nonzero" />
      <path
         id="path3247"
         class="fil0"
         d="m 681.89724,355.56292 c -0.95775,0 -1.72027,0.29268 -2.28756,0.87768 -0.56763,0.58535 -0.8511,1.41874 -0.8511,2.50051 0,1.08141 0.28347,1.91515 0.8511,2.50015 0.56729,0.585 1.32981,0.87768 2.28756,0.87768 0.9574,0 1.71992,-0.29268 2.28721,-0.87768 0.56763,-0.585 0.85145,-1.41874 0.85145,-2.50015 0,-1.08177 -0.28382,-1.91516 -0.85145,-2.50051 -0.56729,-0.585 -1.32981,-0.87768 -2.28721,-0.87768 z m 0,-3.40441 c 1.01055,0 1.91941,0.18177 2.72622,0.54531 0.80681,0.36319 1.49386,0.85111 2.0615,1.46268 0.56728,0.61193 1.00169,1.33016 1.30323,2.15469 0.30153,0.82452 0.45212,1.69759 0.45212,2.61992 0,0.92197 -0.15059,1.79539 -0.45212,2.61992 -0.30154,0.82453 -0.73595,1.54275 -1.30323,2.15433 -0.56764,0.61193 -1.25469,1.09949 -2.0615,1.46303 -0.80681,0.36354 -1.71567,0.54532 -2.72622,0.54532 -1.0109,0 -1.91976,-0.18178 -2.72657,-0.54532 -0.80681,-0.36354 -1.49386,-0.8511 -2.06114,-1.46303 -0.56764,-0.61158 -1.00205,-1.3298 -1.30359,-2.15433 -0.30118,-0.82453 -0.45212,-1.69795 -0.45212,-2.61992 0,-0.92233 0.15094,-1.7954 0.45212,-2.61992 0.30154,-0.82453 0.73595,-1.54276 1.30359,-2.15469 0.56728,-0.61157 1.25433,-1.09949 2.06114,-1.46268 0.80681,-0.36354 1.71567,-0.54531 2.72657,-0.54531 z"
         inkscape:connector-curvature="0"
         style="fill:#656565;fill-rule:nonzero" />
      <path
         id="path3249"
         class="fil0"
         d="m 690.51456,365.40445 0,-12.92704 3.21839,0 0,2.44736 0.0531,0 c 0.30154,-0.85146 0.74055,-1.49847 1.31669,-1.94173 0.5765,-0.44327 1.22811,-0.66508 1.9552,-0.66508 l 0.71787,0 0,3.61736 -0.82452,0 c -0.85111,0 -1.5339,0.27496 -2.04804,0.82453 -0.51413,0.54992 -0.77137,1.3213 -0.77137,2.31413 l 0,6.33047 -3.61737,0 z"
         inkscape:connector-curvature="0"
         style="fill:#656565;fill-rule:nonzero" />
      <path
         id="path3251"
         class="fil0"
         d="m 699.42598,365.40445 0,-8.93728 c 0,-0.70902 0.12862,-1.3298 0.38587,-1.86165 0.25689,-0.53221 0.61618,-0.97973 1.07716,-1.34327 0.46099,-0.36354 1.01516,-0.63851 1.66252,-0.82453 0.64701,-0.18638 1.36985,-0.27921 2.1678,-0.27921 0.6913,0 1.38756,0.19063 2.08771,0.57189 0.70052,0.38126 1.29012,0.84649 1.76882,1.39642 1.09949,-1.31245 2.46473,-1.96831 4.09642,-1.96831 0.63815,0 1.25008,0.0928 1.83508,0.27921 0.58535,0.18602 1.10374,0.46099 1.55622,0.82453 0.45213,0.36354 0.81567,0.81106 1.09028,1.34327 0.27496,0.53185 0.41244,1.15263 0.41244,1.86165 l 0,8.93728 -3.56422,0 0,-7.76693 c 0,-0.67358 -0.15519,-1.18807 -0.46559,-1.5424 -0.31039,-0.35468 -0.77563,-0.5322 -1.39641,-0.5322 -0.31926,0.0177 -0.64701,0.1109 -0.98398,0.27921 -0.33697,0.16866 -0.62965,0.47445 -0.87768,0.91772 l 0,8.6446 -3.56421,0 0,-7.76693 c 0,-0.67358 -0.1552,-1.18807 -0.46559,-1.5424 -0.31039,-0.35468 -0.77598,-0.5322 -1.39642,-0.5322 -0.62079,0 -1.08602,0.17752 -1.39642,0.5322 -0.31039,0.35433 -0.46559,0.86882 -0.46559,1.5424 l 0,7.76693 -3.56421,0 z"
         inkscape:connector-curvature="0"
         style="fill:#656565;fill-rule:nonzero" />
      <path
         id="path3253"
         class="fil0"
         d="m 729.00551,365.40445 0,-7.28787 c 0,-0.78024 -0.27071,-1.40102 -0.81142,-1.86201 -0.54071,-0.46098 -1.28126,-0.69165 -2.22094,-0.69165 -0.40784,0 -0.78485,0.0886 -1.13032,0.2661 -0.34583,0.17717 -0.64736,0.41669 -0.9046,0.71823 -0.25689,0.30118 -0.46099,0.65586 -0.61158,1.0637 -0.15094,0.40783 -0.22606,0.85146 -0.22606,1.33016 0,0.42555 0.0751,0.82878 0.22606,1.21004 0.15059,0.38126 0.35894,0.71397 0.62504,0.99744 0.2661,0.28382 0.58075,0.50563 0.94429,0.66508 0.36354,0.15944 0.75791,0.23952 1.18347,0.23952 0.3724,0 0.70937,-0.0358 1.0109,-0.10665 0.30154,-0.0709 0.61158,-0.16831 0.93083,-0.29232 l 0,3.53728 c -0.39012,0.0889 -0.75792,0.16406 -1.10374,0.22642 -0.34583,0.062 -0.69591,0.0928 -1.05059,0.0928 -0.99319,0 -1.87548,-0.17716 -2.6465,-0.53185 -0.77138,-0.35468 -1.41874,-0.82913 -1.94173,-1.42299 -0.52335,-0.59421 -0.91772,-1.27665 -1.18382,-2.04803 -0.2661,-0.77138 -0.39898,-1.5828 -0.39898,-2.4339 0,-1.02862 0.16406,-1.96831 0.49217,-2.81941 0.32811,-0.8511 0.77563,-1.58279 1.34327,-2.19437 0.56728,-0.61193 1.23661,-1.08177 2.00799,-1.40988 0.77138,-0.32776 1.60051,-0.49181 2.48705,-0.49181 0.97547,0 1.85315,0.14634 2.63338,0.43866 0.78024,0.29268 1.44957,0.69591 2.00799,1.21039 0.55878,0.51414 0.98859,1.12607 1.29012,1.83508 0.30154,0.70937 0.45213,1.48075 0.45213,2.31414 l 0,7.44767 -3.40441,0 z"
         inkscape:connector-curvature="0"
         style="fill:#656565;fill-rule:nonzero" />
      <path
         id="path3255"
         class="fil0"
         d="m 737.00984,369.44737 c 0.3189,0.0886 0.64701,0.19063 0.98398,0.30578 0.33696,0.11552 0.67393,0.17292 1.0109,0.17292 0.37205,0 0.70902,-0.0928 1.01055,-0.27922 0.30154,-0.18602 0.45213,-0.4833 0.45213,-0.89114 0,-0.26575 -0.11516,-0.48295 -0.34583,-0.65161 -0.23031,-0.16831 -0.46984,-0.25264 -0.71787,-0.25264 -0.21296,0 -0.41705,0.0223 -0.61193,0.0666 -0.19488,0.0443 -0.39012,0.10204 -0.585,0.17291 l -0.55878,-0.53221 1.51618,-2.31378 c -1.50732,-0.30153 -2.67307,-1.00204 -3.4976,-2.10153 -0.82453,-1.09913 -1.23697,-2.50016 -1.23697,-4.20236 0,-0.99319 0.14634,-1.88859 0.43902,-2.68654 0.29232,-0.79795 0.71362,-1.47614 1.26319,-2.03492 0.54992,-0.55842 1.21925,-0.98858 2.00834,-1.28976 0.7891,-0.30154 1.68024,-0.45248 2.67307,-0.45248 l 2.36729,0 0,3.40476 -2.26099,0 c -0.9574,0 -1.71106,0.28382 -2.26063,0.8511 -0.54992,0.56764 -0.82452,1.30323 -0.82452,2.20784 0,0.90425 0.2746,1.64019 0.82452,2.20748 0.54957,0.56763 1.30323,0.8511 2.26063,0.8511 l 2.26099,0 0,3.40476 -2.36729,0 -0.34582,0 -0.9574,1.40989 c 0.14173,-0.0358 0.29693,-0.0666 0.46523,-0.0932 0.16866,-0.0266 0.37701,-0.04 0.6254,-0.04 0.23031,0 0.46984,0.04 0.71787,0.11976 0.24839,0.0797 0.47906,0.20835 0.69165,0.38551 0.21296,0.17752 0.39012,0.39473 0.53185,0.65197 0.14209,0.25689 0.21296,0.55417 0.21296,0.89079 0,0.44327 -0.10205,0.82453 -0.30579,1.14378 -0.20409,0.31925 -0.46559,0.58075 -0.78484,0.78484 -0.31925,0.20374 -0.67819,0.35469 -1.07717,0.45213 -0.39897,0.0974 -0.79334,0.14633 -1.18346,0.14633 -0.49677,0 -0.98859,-0.0709 -1.4765,-0.21295 -0.48756,-0.14173 -0.95315,-0.31039 -1.39642,-0.50527 l 0.47906,-1.09063 z"
         inkscape:connector-curvature="0"
         style="fill:#656565;fill-rule:nonzero" />
      <path
         id="path3257"
         class="fil0"
         d="m 756.39882,347.05154 c -0.0709,0.40783 -0.17717,0.80681 -0.31926,1.19693 -0.14173,0.39012 -0.33236,0.73594 -0.57153,1.03713 -0.23953,0.30153 -0.5276,0.54531 -0.86457,0.73169 -0.33697,0.18602 -0.73594,0.27921 -1.19693,0.27921 -0.31925,0 -0.65161,-0.0489 -0.99744,-0.14634 -0.34583,-0.0974 -0.69165,-0.20834 -1.03748,-0.33236 -0.34583,-0.12437 -0.67819,-0.23492 -0.99744,-0.33272 -0.31925,-0.0974 -0.61158,-0.14598 -0.87768,-0.14598 -0.33697,0 -0.59846,0.1063 -0.78449,0.3189 -0.18637,0.21295 -0.315,0.47905 -0.38586,0.79795 l -1.70221,0 c 0.0531,-0.42555 0.15945,-0.83339 0.31926,-1.2235 0.15944,-0.39012 0.36318,-0.7402 0.61157,-1.05059 0.24839,-0.3104 0.54957,-0.55843 0.90425,-0.74481 0.35469,-0.18602 0.76252,-0.27921 1.22351,-0.27921 0.35468,0 0.70511,0.0531 1.05094,0.15945 0.34547,0.10665 0.67819,0.22181 0.99744,0.34583 0.3189,0.12437 0.62043,0.23952 0.90425,0.34582 0.28382,0.1063 0.53185,0.15981 0.74481,0.15981 0.33697,0 0.61618,-0.11091 0.83763,-0.33272 0.22182,-0.22146 0.3593,-0.48295 0.41245,-0.78449 l 1.72878,0 z m -2.26063,18.35291 0,-7.28787 c 0,-0.78024 -0.27071,-1.40102 -0.81142,-1.86201 -0.54071,-0.46098 -1.28126,-0.69165 -2.22095,-0.69165 -0.40783,0 -0.78484,0.0886 -1.13031,0.2661 -0.34583,0.17717 -0.64736,0.41669 -0.90461,0.71823 -0.25689,0.30118 -0.46098,0.65586 -0.61157,1.0637 -0.15095,0.40783 -0.22607,0.85146 -0.22607,1.33016 0,0.42555 0.0751,0.82878 0.22607,1.21004 0.15059,0.38126 0.35893,0.71397 0.62504,0.99744 0.2661,0.28382 0.58074,0.50563 0.94429,0.66508 0.36354,0.15944 0.75791,0.23952 1.18346,0.23952 0.3724,0 0.70937,-0.0358 1.01091,-0.10665 0.30153,-0.0709 0.61157,-0.16831 0.93082,-0.29232 l 0,3.53728 c -0.39011,0.0889 -0.75791,0.16406 -1.10374,0.22642 -0.34582,0.062 -0.6959,0.0928 -1.05059,0.0928 -0.99319,0 -1.87547,-0.17716 -2.64649,-0.53185 -0.77138,-0.35468 -1.41874,-0.82913 -1.94173,-1.42299 -0.52335,-0.59421 -0.91772,-1.27665 -1.18382,-2.04803 -0.26611,-0.77138 -0.39898,-1.5828 -0.39898,-2.4339 0,-1.02862 0.16406,-1.96831 0.49217,-2.81941 0.32811,-0.8511 0.77563,-1.58279 1.34326,-2.19437 0.56729,-0.61193 1.23662,-1.08177 2.008,-1.40988 0.77137,-0.32776 1.60051,-0.49181 2.48704,-0.49181 0.97548,0 1.85315,0.14634 2.63339,0.43866 0.78023,0.29268 1.44957,0.69591 2.00799,1.21039 0.55878,0.51414 0.98858,1.12607 1.29012,1.83508 0.30153,0.70937 0.45212,1.48075 0.45212,2.31414 l 0,7.44767 -3.4044,0 z"
         inkscape:connector-curvature="0"
         style="fill:#656565;fill-rule:nonzero" />
      <path
         id="path3259"
         class="fil0"
         d="m 766.16063,355.56292 c -0.95776,0 -1.72028,0.29268 -2.28756,0.87768 -0.56764,0.58535 -0.85111,1.41874 -0.85111,2.50051 0,1.08141 0.28347,1.91515 0.85111,2.50015 0.56728,0.585 1.3298,0.87768 2.28756,0.87768 0.9574,0 1.71992,-0.29268 2.2872,-0.87768 0.56764,-0.585 0.85146,-1.41874 0.85146,-2.50015 0,-1.08177 -0.28382,-1.91516 -0.85146,-2.50051 -0.56728,-0.585 -1.3298,-0.87768 -2.2872,-0.87768 z m 0,-3.40441 c 1.01055,0 1.91941,0.18177 2.72622,0.54531 0.80681,0.36319 1.49385,0.85111 2.06149,1.46268 0.56729,0.61193 1.0017,1.33016 1.30323,2.15469 0.30154,0.82452 0.45213,1.69759 0.45213,2.61992 0,0.92197 -0.15059,1.79539 -0.45213,2.61992 -0.30153,0.82453 -0.73594,1.54275 -1.30323,2.15433 -0.56764,0.61193 -1.25468,1.09949 -2.06149,1.46303 -0.80681,0.36354 -1.71567,0.54532 -2.72622,0.54532 -1.01091,0 -1.91977,-0.18178 -2.72658,-0.54532 -0.80681,-0.36354 -1.49386,-0.8511 -2.06114,-1.46303 -0.56764,-0.61158 -1.00205,-1.3298 -1.30358,-2.15433 -0.30118,-0.82453 -0.45213,-1.69795 -0.45213,-2.61992 0,-0.92233 0.15095,-1.7954 0.45213,-2.61992 0.30153,-0.82453 0.73594,-1.54276 1.30358,-2.15469 0.56728,-0.61157 1.25433,-1.09949 2.06114,-1.46268 0.80681,-0.36354 1.71567,-0.54531 2.72658,-0.54531 z"
         inkscape:connector-curvature="0"
         style="fill:#656565;fill-rule:nonzero" />
      <g
         id="_398402976"
         style="fill-rule:evenodd"
         transform="matrix(3.543307,0,0,3.543307,-165.474,51.410409)">
        <path
           id="_398406912"
           class="fil1"
           d="m 40.8433,60.7807 -4.4279,0 c -1.8753,0 -3.3512,0.5557 -4.4278,1.667 -1.0766,1.1113 -1.6148,2.5525 -1.6148,4.3236 0,1.7712 0.5382,3.2124 1.6148,4.3237 1.0766,1.1113 2.5525,1.6669 4.4278,1.6669 l 4.4279,0 0,6.6678 -4.6362,0 c -1.9448,0 -3.6899,-0.2952 -5.2353,-0.8856 -1.5454,-0.5903 -2.8564,-1.4325 -3.9329,-2.5264 -1.0766,-1.094 -1.9014,-2.4223 -2.4744,-3.9851 -0.573,-1.5627 -0.8595,-3.3165 -0.8595,-5.2613 0,-1.9448 0.2865,-3.6985 0.8595,-5.2613 0.573,-1.5627 1.3978,-2.8911 2.4744,-3.985 1.0765,-1.094 2.3875,-1.9361 3.9329,-2.5265 1.5454,-0.5904 3.2905,-0.8856 5.2353,-0.8856 l 4.6362,0 0,6.6678 z"
           inkscape:connector-curvature="0"
           style="fill:#0088e0;fill-rule:nonzero" />
        <path
           id="_398406768"
           class="fil1"
           d="m 97.9362,42.9652 0,23.754 c 0,1.8406 -0.3039,3.577 -0.9116,5.2092 -0.6078,1.6323 -1.4586,3.0474 -2.5526,4.2455 -1.0939,1.1982 -2.4136,2.1445 -3.959,2.8391 -1.5454,0.6945 -3.2383,1.0418 -5.0789,1.0418 -1.8406,0 -3.5162,-0.3473 -5.0269,-1.0418 -1.5107,-0.6946 -2.813,-1.6409 -3.9069,-2.8391 -1.094,-1.1981 -1.9448,-2.6132 -2.5525,-4.2455 -0.6078,-1.6322 -0.9117,-3.3686 -0.9117,-5.2092 0,-1.7016 0.2952,-3.3512 0.8856,-4.9487 0.5904,-1.5975 1.4152,-3.004 2.4744,-4.2195 1.0592,-1.2155 2.3355,-2.1965 3.8288,-2.9432 1.4933,-0.7466 3.1255,-1.12 4.8966,-1.12 0.6946,0 1.3718,0.0782 2.0316,0.2344 0.6598,0.1563 1.3197,0.3213 1.9795,0.4949 l 0,7.0325 c -0.5209,-0.2431 -1.0679,-0.4341 -1.6409,-0.5731 -0.573,-0.1389 -1.2242,-0.2083 -1.9534,-0.2083 -1.7017,0 -3.0995,0.5817 -4.1935,1.7451 -1.0939,1.1634 -1.6409,2.6827 -1.6409,4.558 0,1.8753 0.5383,3.3947 1.6149,4.5581 1.0766,1.1634 2.4136,1.7451 4.0111,1.7451 1.7711,0 3.2036,-0.5817 4.2976,-1.7451 1.0939,-1.1634 1.6409,-2.6828 1.6409,-4.5581 l 0,-23.8061 6.6678,0 z"
           inkscape:connector-curvature="0"
           style="fill:#0088e0;fill-rule:nonzero" />
        <polygon
           id="_398406672"
           class="fil1"
           points="102.781,54.1129 109.449,54.1129 109.449,79.4297 102.781,79.4297 "
           style="fill:#0088e0;fill-rule:nonzero" />
        <path
           id="_398406576"
           class="fil1"
           d="m 106.115,43.2151 c 0.8808,0 1.6241,0.2891 2.2297,0.8672 0.6055,0.5779 0.9083,1.4038 0.9083,2.4773 0,1.0735 -0.3028,1.8993 -0.9083,2.4773 -0.6056,0.5781 -1.3489,0.8671 -2.2297,0.8671 -0.8808,0 -1.624,-0.289 -2.2297,-0.8671 -0.6055,-0.578 -0.9083,-1.4038 -0.9083,-2.4773 0,-1.0735 0.3028,-1.8994 0.9083,-2.4773 0.6057,-0.5781 1.3489,-0.8672 2.2297,-0.8672 z"
           inkscape:connector-curvature="0"
           style="fill:#0088e0;fill-rule:nonzero" />
        <path
           id="_398406432"
           class="fil1"
           d="m 116.95,82.5552 c 1.3544,0.5209 2.648,0.8943 3.8809,1.12 1.2328,0.2257 2.5786,0.3386 4.0371,0.3386 0.7988,0 1.5975,-0.0608 2.3963,-0.1823 0.7987,-0.1216 1.5193,-0.382 2.1618,-0.7814 0.6425,-0.3994 1.1634,-0.955 1.5628,-1.6669 0.3993,-0.712 0.599,-1.6409 0.599,-2.787 l 0,-12.3979 c 0,-1.0418 -0.1649,-1.9361 -0.4949,-2.6827 -0.3299,-0.7467 -0.7727,-1.3631 -1.3283,-1.8493 -0.5557,-0.4862 -1.1721,-0.8422 -1.8493,-1.0679 -0.6772,-0.2257 -1.3457,-0.3386 -2.0055,-0.3386 -1.667,0 -3.03,0.5557 -4.0893,1.667 -1.0592,1.1113 -1.5888,2.5872 -1.5888,4.4278 0,1.8406 0.5296,3.2818 1.5888,4.3236 1.0593,1.0419 2.4223,1.5628 4.0893,1.5628 0.8334,0 1.5367,-0.0608 2.1097,-0.1823 0.573,-0.1216 1.1026,-0.2692 1.5888,-0.4428 l 0,6.9282 c -0.6945,0.2431 -1.3717,0.4168 -2.0316,0.521 -0.6598,0.1041 -1.2155,0.1562 -1.6669,0.1562 -1.9448,0 -3.6725,-0.3212 -5.1832,-0.9637 -1.5107,-0.6424 -2.8043,-1.528 -3.8809,-2.6567 -1.0765,-1.1286 -1.8926,-2.4743 -2.4483,-4.0371 -0.5556,-1.5628 -0.8335,-3.2644 -0.8335,-5.105 0,-1.8406 0.2779,-3.551 0.8335,-5.1311 0.5557,-1.5801 1.3718,-2.9519 2.4483,-4.1153 1.0766,-1.1634 2.3702,-2.075 3.8809,-2.7348 1.5107,-0.6598 3.2384,-0.9898 5.1832,-0.9898 1.6669,0 3.2557,0.3213 4.7664,0.9637 1.5107,0.6425 2.8217,1.5107 3.933,2.6046 1.1113,1.094 1.9968,2.3529 2.6567,3.7767 0.6598,1.4239 0.9897,2.9172 0.9897,4.4799 l 0,12.2417 c 0,8.7515 -4.4105,13.1272 -13.2314,13.1272 -1.3544,0 -2.7175,-0.0955 -4.0892,-0.2865 -1.3718,-0.191 -2.7001,-0.5296 -3.9851,-1.0158 l 0,-6.8241 z"
           inkscape:connector-curvature="0"
           style="fill:#0088e0;fill-rule:nonzero" />
        <path
           id="_398406288"
           class="fil1"
           d="m 155.342,60.1556 c -1.8753,0 -3.3686,0.573 -4.4799,1.7191 -1.1113,1.146 -1.667,2.7782 -1.667,4.8966 0,2.1184 0.5557,3.7507 1.667,4.8967 1.1113,1.146 2.6046,1.719 4.4799,1.719 1.8753,0 3.3686,-0.573 4.4799,-1.719 1.1113,-1.146 1.667,-2.7783 1.667,-4.8967 0,-2.1184 -0.5557,-3.7506 -1.667,-4.8966 -1.1113,-1.1461 -2.6046,-1.7191 -4.4799,-1.7191 z m 0,-6.6678 c 1.9795,0 3.7593,0.356 5.3394,1.0679 1.5802,0.7119 2.9259,1.667 4.0372,2.8651 1.1113,1.1981 1.9621,2.6046 2.5525,4.2194 0.5904,1.6149 0.8856,3.3253 0.8856,5.1311 0,1.8059 -0.2952,3.5162 -0.8856,5.1311 -0.5904,1.6148 -1.4412,3.0213 -2.5525,4.2195 -1.1113,1.1981 -2.457,2.1531 -4.0372,2.865 -1.5801,0.7119 -3.3599,1.0679 -5.3394,1.0679 -1.9795,0 -3.7593,-0.356 -5.3394,-1.0679 -1.5802,-0.7119 -2.9259,-1.6669 -4.0372,-2.865 -1.1113,-1.1982 -1.9621,-2.6047 -2.5525,-4.2195 -0.5904,-1.6149 -0.8856,-3.3252 -0.8856,-5.1311 0,-1.8058 0.2952,-3.5162 0.8856,-5.1311 0.5904,-1.6148 1.4412,-3.0213 2.5525,-4.2194 1.1113,-1.1981 2.457,-2.1532 4.0372,-2.8651 1.5801,-0.7119 3.3599,-1.0679 5.3394,-1.0679 z"
           inkscape:connector-curvature="0"
           style="fill:#0088e0;fill-rule:nonzero" />
        <path
           id="_398406144"
           class="fil2"
           d="m 189.722,79.4297 0,-14.2732 c 0,-1.5281 -0.5296,-2.7436 -1.5888,-3.6465 -1.0592,-0.9029 -2.5091,-1.3544 -4.3497,-1.3544 -0.7988,0 -1.5367,0.1737 -2.2139,0.5209 -0.6772,0.3473 -1.2676,0.8162 -1.7712,1.4065 -0.5035,0.5904 -0.9029,1.285 -1.1981,2.0837 -0.2952,0.7988 -0.4428,1.667 -0.4428,2.6046 0,0.8335 0.1476,1.6236 0.4428,2.3702 0.2952,0.7467 0.7033,1.3978 1.2242,1.9535 0.5209,0.5556 1.1373,0.9897 1.8493,1.3023 0.7119,0.3125 1.4846,0.4688 2.3181,0.4688 0.7292,0 1.3891,-0.0695 1.9795,-0.2084 0.5903,-0.1389 1.1981,-0.3299 1.8232,-0.573 l 0,6.9283 c -0.764,0.1736 -1.4847,0.3212 -2.1618,0.4427 -0.6772,0.1216 -1.3631,0.1824 -2.0577,0.1824 -1.9448,0 -3.6725,-0.3473 -5.1831,-1.0419 -1.5107,-0.6945 -2.7783,-1.6235 -3.8028,-2.7869 -1.0245,-1.1634 -1.7972,-2.5004 -2.3181,-4.0111 -0.5209,-1.5107 -0.7814,-3.0995 -0.7814,-4.7664 0,-2.0142 0.3213,-3.8548 0.9638,-5.5218 0.6424,-1.6669 1.5193,-3.0995 2.6306,-4.2976 1.1113,-1.1981 2.4223,-2.1184 3.933,-2.7609 1.5106,-0.6424 3.1342,-0.9637 4.8706,-0.9637 1.91,0 3.6291,0.2865 5.1571,0.8596 1.528,0.573 2.839,1.363 3.9329,2.3701 1.094,1.0072 1.9361,2.2053 2.5265,3.5944 0.5904,1.3891 0.8856,2.8998 0.8856,4.532 l 0,14.5858 -6.6678,0 z"
           inkscape:connector-curvature="0"
           style="fill:#00cc00;fill-rule:nonzero" />
        <polygon
           id="_398406000"
           class="fil2"
           points="201.235,42.9652 207.903,42.9652 207.903,79.4297 201.235,79.4297 "
           style="fill:#00cc00;fill-rule:nonzero" />
        <path
           id="_398405856"
           class="fil2"
           d="m 233.636,54.1129 -6.5115,20.9411 c -0.2084,0.6251 -0.4428,1.2415 -0.7033,1.8492 -0.2604,0.6078 -0.599,1.1461 -1.0158,1.6149 -0.4167,0.4688 -0.929,0.8421 -1.5367,1.12 -0.6077,0.2778 -1.3283,0.4167 -2.1618,0.4167 -0.8335,0 -1.5541,-0.1389 -2.1618,-0.4167 -0.6078,-0.2779 -1.12,-0.6512 -1.5368,-1.12 -0.4167,-0.4688 -0.7553,-1.0071 -1.0158,-1.6149 -0.2604,-0.6077 -0.4948,-1.2241 -0.7032,-1.8492 l -6.1469,-20.9411 7.3971,0 4.2195,16.7737 0.1042,0 4.2715,-16.7737 7.5013,0 z"
           inkscape:connector-curvature="0"
           style="fill:#00cc00;fill-rule:nonzero" />
        <path
           id="_398405688"
           class="fil3"
           d="m 56.8881,53.5904 c 0.8527,0 1.6865,0.081 2.4941,0.2356 l -2.193,6.0253 c -0.0999,-0.0044 -0.2002,-0.0066 -0.3011,-0.0066 -3.8405,0 -6.9538,3.1133 -6.9538,6.9538 0,2.2467 1.0657,4.2441 2.7189,5.5152 l -2.1929,6.0251 C 46.4155,76.0813 43.68,71.7596 43.68,66.7985 c 0,-7.2947 5.9134,-13.2081 13.2081,-13.2081 z m 6.4275,1.6678 c 4.0448,2.2575 6.7806,6.5791 6.7806,11.5403 0,7.2947 -5.9134,13.2081 -13.2081,13.2081 -0.8528,0 -1.6866,-0.0811 -2.4944,-0.2356 l 2.193,-6.0253 c 0.0999,0.0044 0.2004,0.0066 0.3014,0.0066 3.8405,0 6.9538,-3.1133 6.9538,-6.9538 0,-2.2468 -1.0658,-4.2442 -2.7192,-5.5154 l 2.1929,-6.0249 z"
           inkscape:connector-curvature="0"
           style="fill:#656565" />
        <path
           id="_398401560"
           class="fil3"
           d="m 250.121,53.4981 c 5.6351,0.8952 10.0851,5.3453 10.9802,10.9804 l -6.5622,0 c -0.6722,-2.0927 -2.3253,-3.7455 -4.418,-4.4177 l 0,-6.5627 z m 10.9801,15.1664 c -0.8952,5.6349 -5.3451,10.0848 -10.9801,10.98 l 0,-6.5627 c 2.0926,-0.6721 3.7456,-2.3248 4.4179,-4.4173 l 6.5622,0 z m -15.1661,10.98 c -5.635,-0.8952 -10.0849,-5.3451 -10.9801,-10.98 l 6.5622,0 c 0.6723,2.0925 2.3253,3.7452 4.4179,4.4173 l 0,6.5627 z m -10.9802,-15.166 c 0.8951,-5.6351 5.3451,-10.0852 10.9802,-10.9804 l 0,6.5627 c -2.0927,0.6722 -3.7458,2.325 -4.418,4.4177 l -6.5622,0 z"
           inkscape:connector-curvature="0"
           style="fill:#656565" />
        <g
           id="g3306">
          <rect
             id="_398401728"
             class="fil4"
             x="232.258"
             y="65.949997"
             width="11.7573"
             height="1.24265"
             style="fill:#0088e0" />
          <rect
             id="_398401944"
             class="fil4"
             x="252.03999"
             y="65.949997"
             width="11.7573"
             height="1.24265"
             style="fill:#0088e0" />
          <rect
             id="_398402112"
             class="fil4"
             transform="matrix(0,0.177903,-0.231419,0,248.649,50.8015)"
             width="66.088203"
             height="5.3697"
             x="0"
             y="0"
             style="fill:#0088e0" />
          <rect
             id="_398402184"
             class="fil4"
             transform="matrix(0,0.177903,-0.231419,0,248.649,70.5838)"
             width="66.088203"
             height="5.3697"
             x="0"
             y="0"
             style="fill:#0088e0" />
        </g>
        <circle
           id="_398402448"
           class="fil4"
           cx="248.028"
           cy="66.571297"
           r="1.1349"
           sodipodi:cx="248.028"
           sodipodi:cy="66.571297"
           sodipodi:rx="1.1349"
           sodipodi:ry="1.1349"
           style="fill:#0088e0"
           d="m 249.1629,66.571297 c 0,0.626788 -0.50811,1.1349 -1.1349,1.1349 -0.62679,0 -1.1349,-0.508112 -1.1349,-1.1349 0,-0.626788 0.50811,-1.1349 1.1349,-1.1349 0.62679,0 1.1349,0.508112 1.1349,1.1349 z" />
      </g>
    </g>
  </g>
</svg>
