<?xml version="1.0" standalone="no"?>
<!DOCTYPE svg PUBLIC "-//W3C//DTD SVG 1.1//EN" "http://www.w3.org/Graphics/SVG/1.1/DTD/svg11.dtd" >
<svg>
<metadata>
Created by FontForge 20090914 at Wed Mar 28 00:29:28 2012
 By www-data
Copyright (c) 1989 Adobe Systems Incorporated. All Rights Reserved.Bauhaus is a registered trademark of International Typeface Corporation.
</metadata>
<defs>
<font id="BauhausLT-Light" horiz-adv-x="556" >
  <font-face 
    font-family="Bauhaus LT Light"
    font-weight="300"
    font-stretch="normal"
    units-per-em="1000"
    panose-1="2 0 4 3 2 0 0 2 0 3"
    ascent="800"
    descent="-200"
    x-height="474"
    cap-height="700"
    bbox="-167 -228 1000 935"
    underline-thickness="50"
    underline-position="-75"
    unicode-range="U+0020-U+FB02"
  />
<missing-glyph horiz-adv-x="278" 
 />
    <glyph glyph-name=".notdef" horiz-adv-x="278" 
 />
    <glyph glyph-name="A" unicode="A" horiz-adv-x="611" 
d="M546 0h-42v342h-358v36h358v106q0 44 -14.5 79.5t-40.5 60t-62.5 37.5t-81.5 13t-81.5 -13t-62.5 -37.5t-40.5 -60t-14.5 -79.5v-484h-42v471q0 57 17 102t48.5 75.5t76 47t99.5 16.5t99.5 -16.5t76 -47t48.5 -75.5t17 -102v-471z" />
    <glyph glyph-name="AE" unicode="&#xc6;" horiz-adv-x="944" 
d="M526 342q0 -77 30 -134.5t76.5 -95.5t103 -57t109.5 -19h62v-36h-78q-45 0 -89.5 11.5t-84 33.5t-72 54.5t-54.5 74.5h-2v-174h-44v342h-349v36h349v84q0 100 -52.5 156t-141.5 56t-142 -56t-53 -156v-462h-42v454q0 60 16 108t47 81.5t74.5 51t99.5 17.5
q96 0 156.5 -51.5t75.5 -144.5h2q21 45 54 79.5t73.5 57.5t86 35t92.5 12h78v-36h-76q-67 0 -123 -25.5t-96.5 -66.5t-63 -92t-22.5 -102h381v-36h-381z" />
    <glyph glyph-name="Aacute" unicode="&#xc1;" horiz-adv-x="611" 
d="M249 741l119 138h51l-133 -138h-37zM546 0h-42v342h-358v36h358v106q0 44 -14.5 79.5t-40.5 60t-62.5 37.5t-81.5 13t-81.5 -13t-62.5 -37.5t-40.5 -60t-14.5 -79.5v-484h-42v471q0 57 17 102t48.5 75.5t76 47t99.5 16.5t99.5 -16.5t76 -47t48.5 -75.5t17 -102v-471z" />
    <glyph glyph-name="Acircumflex" unicode="&#xc2;" horiz-adv-x="611" 
d="M441 741h-42l-94 114l-94 -114h-40l107 138h54zM546 0h-42v342h-358v36h358v106q0 44 -14.5 79.5t-40.5 60t-62.5 37.5t-81.5 13t-81.5 -13t-62.5 -37.5t-40.5 -60t-14.5 -79.5v-484h-42v471q0 57 17 102t48.5 75.5t76 47t99.5 16.5t99.5 -16.5t76 -47t48.5 -75.5
t17 -102v-471z" />
    <glyph glyph-name="Adieresis" unicode="&#xc4;" horiz-adv-x="611" 
d="M193 799q0 14 10 24t24 10t24 -10t10 -24t-10 -24t-24 -10t-24 10t-10 24zM351 799q0 14 10 24t24 10t24 -10t10 -24t-10 -24t-24 -10t-24 10t-10 24zM546 0h-42v342h-358v36h358v106q0 44 -14.5 79.5t-40.5 60t-62.5 37.5t-81.5 13t-81.5 -13t-62.5 -37.5t-40.5 -60
t-14.5 -79.5v-484h-42v471q0 57 17 102t48.5 75.5t76 47t99.5 16.5t99.5 -16.5t76 -47t48.5 -75.5t17 -102v-471z" />
    <glyph glyph-name="Agrave" unicode="&#xc0;" horiz-adv-x="611" 
d="M326 741l-133 138h51l119 -138h-37zM546 0h-42v342h-358v36h358v106q0 44 -14.5 79.5t-40.5 60t-62.5 37.5t-81.5 13t-81.5 -13t-62.5 -37.5t-40.5 -60t-14.5 -79.5v-484h-42v471q0 57 17 102t48.5 75.5t76 47t99.5 16.5t99.5 -16.5t76 -47t48.5 -75.5t17 -102v-471z" />
    <glyph glyph-name="Aring" unicode="&#xc5;" horiz-adv-x="611" 
d="M237 838q0 -29 20 -49t49 -20t49 20t20 49t-20 49t-49 20t-49 -20t-20 -49zM209 838q0 41 28 69t69 28t69 -28t28 -69t-28 -69t-69 -28t-69 28t-28 69zM546 0h-42v342h-358v36h358v106q0 44 -14.5 79.5t-40.5 60t-62.5 37.5t-81.5 13t-81.5 -13t-62.5 -37.5t-40.5 -60
t-14.5 -79.5v-484h-42v471q0 57 17 102t48.5 75.5t76 47t99.5 16.5t99.5 -16.5t76 -47t48.5 -75.5t17 -102v-471z" />
    <glyph glyph-name="Atilde" unicode="&#xc3;" horiz-adv-x="611" 
d="M160 756q3 16 8.5 31.5t15.5 28t23.5 20.5t31.5 8q16 0 34 -8.5t36 -18.5l34.5 -18.5t28.5 -8.5q26 0 36 16t14 38h30q-3 -16 -8.5 -31.5t-15.5 -28t-23.5 -20.5t-31.5 -8q-16 0 -34 8.5t-36 18.5l-34.5 18.5t-28.5 8.5q-26 0 -36 -16t-14 -38h-30zM546 0h-42v342h-358
v36h358v106q0 44 -14.5 79.5t-40.5 60t-62.5 37.5t-81.5 13t-81.5 -13t-62.5 -37.5t-40.5 -60t-14.5 -79.5v-484h-42v471q0 57 17 102t48.5 75.5t76 47t99.5 16.5t99.5 -16.5t76 -47t48.5 -75.5t17 -102v-471z" />
    <glyph glyph-name="B" unicode="B" 
d="M146 36h142q51 0 87 11.5t59 32.5t33.5 49t10.5 61q0 72 -44 117t-130 45h-158v36h102q100 0 147 36t47 116q0 63 -42.5 99.5t-118.5 36.5q-38 0 -70 -11t-55.5 -32.5t-36.5 -54.5t-13 -76v-502h-42v476q0 122 57.5 179t164.5 57q52 0 89.5 -14t62 -38t36.5 -55t12 -65
q0 -26 -5 -51.5t-17 -47t-32.5 -39t-50.5 -27.5v-2q23 0 48 -13.5t45.5 -38t34 -58.5t13.5 -75q0 -38 -13 -72.5t-39 -60t-65.5 -40.5t-92.5 -15h-166v36z" />
    <glyph glyph-name="C" unicode="C" horiz-adv-x="500" 
d="M475 0h-89q-65 0 -127.5 23t-111 67.5t-78 109.5t-29.5 150t29.5 150t78 109.5t111 67.5t127.5 23h90v-36h-82q-55 0 -110.5 -19t-99.5 -58t-72 -98t-28 -139t28 -139t72 -98t99.5 -58t110.5 -19h81v-36z" />
    <glyph glyph-name="Ccedilla" unicode="&#xc7;" horiz-adv-x="500" 
d="M265 -147q18 -9 38 -14t40 -4q21 -1 42.5 11t21.5 36q0 26 -18 35.5t-40 9.5q-8 0 -21.5 -4t-21.5 -8l-16 13l55 74q-60 6 -115 32t-97 70t-67.5 106t-25.5 140q0 85 29.5 150t78 109.5t111 67.5t127.5 23h90v-36h-82q-55 0 -110.5 -19t-99.5 -58t-72 -98t-28 -139
t28 -139t72 -98t99.5 -58t110.5 -19h81v-36h-89h-9l-45 -53l2 -2q6 5 17.5 6.5t20.5 1.5q31 0 53 -19t22 -51q0 -21 -10.5 -35t-26.5 -22.5t-35 -12.5t-36 -4q-21 0 -44 5.5t-43 14.5z" />
    <glyph glyph-name="D" unicode="D" horiz-adv-x="611" 
d="M64 0v700h152q70 0 134 -25.5t113 -71.5t78.5 -110.5t29.5 -142.5q0 -80 -26 -144.5t-70.5 -110t-104.5 -70.5t-128 -25h-101v38h97q68 0 122 26t91 69.5t56.5 99.5t19.5 117q0 65 -24.5 122t-68 99t-103.5 66.5t-131 24.5h-94v-662h-42z" />
    <glyph glyph-name="E" unicode="E" horiz-adv-x="500" 
d="M452 342h-384q0 -77 30 -134.5t76.5 -95.5t103.5 -57t110 -19h64v-36h-80q-65 0 -127.5 23t-111 67.5t-78 109.5t-29.5 150t29.5 150t78 109.5t111 67.5t127.5 23h80v-36h-78q-67 0 -123 -25.5t-96.5 -66.5t-63.5 -92t-23 -102h384v-36z" />
    <glyph glyph-name="Eacute" unicode="&#xc9;" horiz-adv-x="500" 
d="M274 741l119 138h51l-133 -138h-37zM452 342h-384q0 -77 30 -134.5t76.5 -95.5t103.5 -57t110 -19h64v-36h-80q-65 0 -127.5 23t-111 67.5t-78 109.5t-29.5 150t29.5 150t78 109.5t111 67.5t127.5 23h80v-36h-78q-67 0 -123 -25.5t-96.5 -66.5t-63.5 -92t-23 -102h384
v-36z" />
    <glyph glyph-name="Ecircumflex" unicode="&#xca;" horiz-adv-x="500" 
d="M466 741h-42l-94 114l-94 -114h-40l107 138h54zM452 342h-384q0 -77 30 -134.5t76.5 -95.5t103.5 -57t110 -19h64v-36h-80q-65 0 -127.5 23t-111 67.5t-78 109.5t-29.5 150t29.5 150t78 109.5t111 67.5t127.5 23h80v-36h-78q-67 0 -123 -25.5t-96.5 -66.5t-63.5 -92
t-23 -102h384v-36z" />
    <glyph glyph-name="Edieresis" unicode="&#xcb;" horiz-adv-x="500" 
d="M218 799q0 14 10 24t24 10t24 -10t10 -24t-10 -24t-24 -10t-24 10t-10 24zM376 799q0 14 10 24t24 10t24 -10t10 -24t-10 -24t-24 -10t-24 10t-10 24zM452 342h-384q0 -77 30 -134.5t76.5 -95.5t103.5 -57t110 -19h64v-36h-80q-65 0 -127.5 23t-111 67.5t-78 109.5
t-29.5 150t29.5 150t78 109.5t111 67.5t127.5 23h80v-36h-78q-67 0 -123 -25.5t-96.5 -66.5t-63.5 -92t-23 -102h384v-36z" />
    <glyph glyph-name="Egrave" unicode="&#xc8;" horiz-adv-x="500" 
d="M351 741l-133 138h51l119 -138h-37zM452 342h-384q0 -77 30 -134.5t76.5 -95.5t103.5 -57t110 -19h64v-36h-80q-65 0 -127.5 23t-111 67.5t-78 109.5t-29.5 150t29.5 150t78 109.5t111 67.5t127.5 23h80v-36h-78q-67 0 -123 -25.5t-96.5 -66.5t-63.5 -92t-23 -102h384
v-36z" />
    <glyph glyph-name="F" unicode="F" horiz-adv-x="444" 
d="M106 0h-42v494q0 51 16 89.5t41.5 64.5t58 39t64.5 13h152v-36h-138q-35 0 -63 -13t-47.5 -36t-30.5 -54.5t-11 -68.5v-124h290v-36h-290v-332z" />
    <glyph glyph-name="G" unicode="G" horiz-adv-x="778" 
d="M631 567q-43 52 -107 79.5t-136 27.5q-67 0 -124 -26t-98.5 -70.5t-65 -103t-23.5 -124.5t23.5 -124.5t65 -103t98.5 -70.5t124 -26q64 0 119 24t95.5 66t64 98.5t25.5 121.5h-304v36h348q2 -89 -25.5 -160.5t-75.5 -121t-112 -76t-135 -26.5q-75 0 -139.5 28.5
t-112.5 78t-75.5 115.5t-27.5 140t27.5 140t75.5 115.5t112.5 78t139.5 28.5q80 0 151.5 -29.5t120.5 -85.5z" />
    <glyph glyph-name="H" unicode="H" horiz-adv-x="611" 
d="M70 0v700h42v-316h387v316h42v-700h-42v348h-387v-348h-42z" />
    <glyph glyph-name="I" unicode="I" horiz-adv-x="222" 
d="M90 0v700h42v-700h-42z" />
    <glyph glyph-name="Iacute" unicode="&#xcd;" horiz-adv-x="222" 
d="M54 741l119 138h51l-133 -138h-37zM90 0v700h42v-700h-42z" />
    <glyph glyph-name="Icircumflex" unicode="&#xce;" horiz-adv-x="222" 
d="M246 741h-42l-94 114l-94 -114h-40l107 138h54zM90 0v700h42v-700h-42z" />
    <glyph glyph-name="Idieresis" unicode="&#xcf;" horiz-adv-x="222" 
d="M-2 799q0 14 10 24t24 10t24 -10t10 -24t-10 -24t-24 -10t-24 10t-10 24zM156 799q0 14 10 24t24 10t24 -10t10 -24t-10 -24t-24 -10t-24 10t-10 24zM90 0v700h42v-700h-42z" />
    <glyph glyph-name="Igrave" unicode="&#xcc;" horiz-adv-x="222" 
d="M131 741l-133 138h51l119 -138h-37zM90 0v700h42v-700h-42z" />
    <glyph glyph-name="J" unicode="J" horiz-adv-x="333" 
d="M-15 38h75q28 0 56.5 8.5t51.5 28t38 51t15 78.5v496h42v-510q0 -47 -17 -82.5t-44.5 -59.5t-63.5 -36t-74 -12h-79v38z" />
    <glyph glyph-name="K" unicode="K" 
d="M64 0v700h42v-316h112q40 0 67.5 8t48.5 27t39 50t39 78l67 153h47l-100 -218q-23 -48 -46.5 -73t-52.5 -31v-2q36 -3 69 -16.5t59 -40.5t41.5 -69t15.5 -100v-150h-42v150q0 99 -48.5 148.5t-157.5 49.5h-158v-348h-42z" />
    <glyph glyph-name="L" unicode="L" horiz-adv-x="389" 
d="M106 700v-492q0 -37 11 -68.5t30.5 -54.5t47.5 -36t63 -13h133v-36h-147q-32 0 -64.5 13t-58 39t-41.5 64.5t-16 89.5v494h42z" />
    <glyph glyph-name="M" unicode="M" horiz-adv-x="833" 
d="M28 0l87 640q5 32 14.5 52t37.5 20q14 0 23.5 -2.5t16.5 -11t13 -25.5t15 -45l168 -569q3 -9 6.5 -16t7.5 -7t7 7t5 16l168 569q9 28 15 45t13 25.5t16.5 11t23.5 2.5q28 0 37.5 -20t14.5 -52l87 -640h-42l-87 643q-2 14 -5 21.5t-9 7.5q-7 0 -10.5 -7.5t-7.5 -21.5
l-168 -574l-13 -40t-11 -23.5t-14 -11t-21 -2.5t-21 2.5t-14 11t-11.5 23.5t-12.5 40l-168 574q-4 14 -7.5 21.5t-10.5 7.5q-6 0 -9 -7.5t-5 -21.5l-87 -643h-42z" />
    <glyph glyph-name="N" unicode="N" horiz-adv-x="611" 
d="M68 0v656q0 20 11 38t41 18q20 0 33.5 -7.5t26.5 -34.5l293 -626q7 -14 17 -14q11 0 11 19v663h42v-674q0 -50 -51 -50q-29 0 -43 16.5t-21 31.5l-278 599q-11 23 -16.5 31t-11.5 8q-12 0 -12 -18v-656h-42z" />
    <glyph glyph-name="Ntilde" unicode="&#xd1;" horiz-adv-x="611" 
d="M172 756q3 16 8.5 31.5t15.5 28t23.5 20.5t31.5 8q16 0 34 -8.5t36 -18.5l34.5 -18.5t28.5 -8.5q26 0 36 16t14 38h30q-3 -16 -8.5 -31.5t-15.5 -28t-23.5 -20.5t-31.5 -8q-16 0 -34 8.5t-36 18.5l-34.5 18.5t-28.5 8.5q-26 0 -36 -16t-14 -38h-30zM68 0v656q0 20 11 38
t41 18q20 0 33.5 -7.5t26.5 -34.5l293 -626q7 -14 17 -14q11 0 11 19v663h42v-674q0 -50 -51 -50q-29 0 -43 16.5t-21 31.5l-278 599q-11 23 -16.5 31t-11.5 8q-12 0 -12 -18v-656h-42z" />
    <glyph glyph-name="O" unicode="O" horiz-adv-x="778" 
d="M388 26q66 0 123.5 26t99.5 70.5t66 103t24 124.5t-24 124.5t-66 103t-99.5 70.5t-123.5 26q-67 0 -124 -26t-98.5 -70.5t-65 -103t-23.5 -124.5t23.5 -124.5t65 -103t98.5 -70.5t124 -26zM388 -12q-75 0 -139.5 28.5t-112.5 78t-75.5 115.5t-27.5 140t27.5 140
t75.5 115.5t112.5 78t139.5 28.5t140 -28.5t113 -78t76 -115.5t28 -140t-28 -140t-76 -115.5t-113 -78t-140 -28.5z" />
    <glyph glyph-name="OE" unicode="&#x152;" horiz-adv-x="1000" 
d="M344 26q62 0 114.5 26t90.5 70.5t59 103t21 124.5t-21 124.5t-59 103t-90.5 70.5t-114.5 26t-115 -26t-92 -70.5t-61 -103t-22 -124.5t22 -124.5t61 -103t92 -70.5t115 -26zM987 342h-313q1 -64 24 -118.5t64 -95t98.5 -64.5t126.5 -28v-36q-56 0 -106 12t-92.5 38
t-76.5 67.5t-58 100.5h-2q-14 -45 -42.5 -87t-68.5 -73.5t-90 -50.5t-107 -19q-70 0 -130.5 28.5t-105.5 78t-70.5 115.5t-25.5 140t25.5 140t70.5 115.5t105.5 78t130.5 28.5q57 0 107 -19t90 -51t68.5 -74t42.5 -88h2q17 49 47.5 90t73 69.5t96 44.5t116.5 16v-36
q-65 0 -121 -22t-97.5 -60.5t-66.5 -90.5t-28 -113h313v-36z" />
    <glyph glyph-name="Oacute" unicode="&#xd3;" horiz-adv-x="778" 
d="M332 741l119 138h51l-133 -138h-37zM388 26q66 0 123.5 26t99.5 70.5t66 103t24 124.5t-24 124.5t-66 103t-99.5 70.5t-123.5 26q-67 0 -124 -26t-98.5 -70.5t-65 -103t-23.5 -124.5t23.5 -124.5t65 -103t98.5 -70.5t124 -26zM388 -12q-75 0 -139.5 28.5t-112.5 78
t-75.5 115.5t-27.5 140t27.5 140t75.5 115.5t112.5 78t139.5 28.5t140 -28.5t113 -78t76 -115.5t28 -140t-28 -140t-76 -115.5t-113 -78t-140 -28.5z" />
    <glyph glyph-name="Ocircumflex" unicode="&#xd4;" horiz-adv-x="778" 
d="M524 741h-42l-94 114l-94 -114h-40l107 138h54zM388 26q66 0 123.5 26t99.5 70.5t66 103t24 124.5t-24 124.5t-66 103t-99.5 70.5t-123.5 26q-67 0 -124 -26t-98.5 -70.5t-65 -103t-23.5 -124.5t23.5 -124.5t65 -103t98.5 -70.5t124 -26zM388 -12q-75 0 -139.5 28.5
t-112.5 78t-75.5 115.5t-27.5 140t27.5 140t75.5 115.5t112.5 78t139.5 28.5t140 -28.5t113 -78t76 -115.5t28 -140t-28 -140t-76 -115.5t-113 -78t-140 -28.5z" />
    <glyph glyph-name="Odieresis" unicode="&#xd6;" horiz-adv-x="778" 
d="M434 799q0 14 10 24t24 10t24 -10t10 -24t-10 -24t-24 -10t-24 10t-10 24zM276 799q0 14 10 24t24 10t24 -10t10 -24t-10 -24t-24 -10t-24 10t-10 24zM388 26q66 0 123.5 26t99.5 70.5t66 103t24 124.5t-24 124.5t-66 103t-99.5 70.5t-123.5 26q-67 0 -124 -26
t-98.5 -70.5t-65 -103t-23.5 -124.5t23.5 -124.5t65 -103t98.5 -70.5t124 -26zM388 -12q-75 0 -139.5 28.5t-112.5 78t-75.5 115.5t-27.5 140t27.5 140t75.5 115.5t112.5 78t139.5 28.5t140 -28.5t113 -78t76 -115.5t28 -140t-28 -140t-76 -115.5t-113 -78t-140 -28.5z" />
    <glyph glyph-name="Ograve" unicode="&#xd2;" horiz-adv-x="778" 
d="M409 741l-133 138h51l119 -138h-37zM388 26q66 0 123.5 26t99.5 70.5t66 103t24 124.5t-24 124.5t-66 103t-99.5 70.5t-123.5 26q-67 0 -124 -26t-98.5 -70.5t-65 -103t-23.5 -124.5t23.5 -124.5t65 -103t98.5 -70.5t124 -26zM388 -12q-75 0 -139.5 28.5t-112.5 78
t-75.5 115.5t-27.5 140t27.5 140t75.5 115.5t112.5 78t139.5 28.5t140 -28.5t113 -78t76 -115.5t28 -140t-28 -140t-76 -115.5t-113 -78t-140 -28.5z" />
    <glyph glyph-name="Oslash" unicode="&#xd8;" horiz-adv-x="778" 
d="M601 587q-43 41 -96.5 64t-116.5 23q-67 0 -124 -26t-98.5 -70.5t-65 -103t-23.5 -124.5q0 -62 20 -117t53 -92zM175 113q40 -40 94.5 -63.5t118.5 -23.5q66 0 123.5 26t99.5 70.5t66 103t24 124.5q0 62 -20.5 116t-52.5 93zM-3 -12l124 124q-42 48 -65 109t-23 129
q0 74 27.5 140t75.5 115.5t112.5 78t139.5 28.5q71 0 132.5 -26t109.5 -71l98 97h52l-124 -123q42 -48 65.5 -109t23.5 -130q0 -74 -28 -140t-76 -115.5t-113 -78t-140 -28.5q-72 0 -134.5 26t-107.5 71l-97 -97h-52z" />
    <glyph glyph-name="Otilde" unicode="&#xd5;" horiz-adv-x="778" 
d="M243 756q3 16 8.5 31.5t15.5 28t23.5 20.5t31.5 8q16 0 34 -8.5t36 -18.5l34.5 -18.5t28.5 -8.5q26 0 36 16t14 38h30q-3 -16 -8.5 -31.5t-15.5 -28t-23.5 -20.5t-31.5 -8q-16 0 -34 8.5t-36 18.5l-34.5 18.5t-28.5 8.5q-26 0 -36 -16t-14 -38h-30zM388 26q66 0 123.5 26
t99.5 70.5t66 103t24 124.5t-24 124.5t-66 103t-99.5 70.5t-123.5 26q-67 0 -124 -26t-98.5 -70.5t-65 -103t-23.5 -124.5t23.5 -124.5t65 -103t98.5 -70.5t124 -26zM388 -12q-75 0 -139.5 28.5t-112.5 78t-75.5 115.5t-27.5 140t27.5 140t75.5 115.5t112.5 78t139.5 28.5
t140 -28.5t113 -78t76 -115.5t28 -140t-28 -140t-76 -115.5t-113 -78t-140 -28.5z" />
    <glyph glyph-name="P" unicode="P" horiz-adv-x="500" 
d="M60 0v506q0 41 14 78.5t41.5 66t67.5 45t92 16.5q45 0 84.5 -14.5t68.5 -42t45.5 -67.5t16.5 -91t-16.5 -91t-45.5 -67.5t-68.5 -42t-84.5 -14.5h-136v38h136q37 0 68.5 12t54 35t35.5 55.5t13 74.5t-13 74.5t-35.5 55.5t-54 35t-68.5 12q-38 0 -69.5 -13t-54.5 -35.5
t-36 -52t-13 -63.5v-510h-42z" />
    <glyph glyph-name="Q" unicode="Q" horiz-adv-x="778" 
d="M424 28q60 7 110.5 35.5t87.5 71.5t58 98.5t21 116.5q0 66 -24 124.5t-66 103t-99.5 70.5t-123.5 26q-67 0 -124 -26t-98.5 -70.5t-65 -103t-23.5 -124.5q0 -62 20.5 -116.5t55.5 -97t83 -70.5t104 -36v-38q-61 5 -116.5 35.5t-98 78.5t-67.5 111t-25 133q0 74 27.5 140
t75.5 115.5t112.5 78t139.5 28.5t140 -28.5t113 -78t76 -115.5t28 -140q0 -70 -24.5 -132t-67.5 -110.5t-102 -79.5t-127 -38v-142h-38v344h38v-164z" />
    <glyph glyph-name="R" unicode="R" 
d="M64 0v492q0 50 15 91t42 69.5t65.5 44t85.5 15.5q48 0 87.5 -13.5t67.5 -37.5t43.5 -57.5t15.5 -73.5q0 -63 -27 -108.5t-88 -66.5v-2q58 -10 93.5 -51t35.5 -110v-192h-44v198q0 28 -9 52.5t-29 42.5t-51.5 28.5t-76.5 10.5h-144v36h114q92 0 137 43.5t45 114.5
q0 33 -12.5 60t-35 46.5t-54 30.5t-68.5 11q-41 0 -72 -13t-52 -37t-31.5 -57t-10.5 -73v-494h-42z" />
    <glyph glyph-name="S" unicode="S" 
d="M473 662h-232q-44 0 -73.5 -8.5t-47.5 -24.5t-25.5 -39t-7.5 -51q0 -40 18.5 -66.5t48.5 -43.5t68 -29l78 -23.5t78 -25.5t68 -36t48.5 -55t18.5 -83q0 -88 -57.5 -132.5t-160.5 -44.5h-252v38h246q86 0 133 34t47 99q0 44 -18.5 72.5t-48.5 47.5t-68 31t-78 23t-78 24.5
t-68 35t-48.5 54.5t-18.5 84q0 40 14.5 69.5t39 49t57.5 29t71 9.5h248v-38z" />
    <glyph glyph-name="T" unicode="T" horiz-adv-x="444" 
d="M243 0h-42v664h-199v36h440v-36h-199v-664z" />
    <glyph glyph-name="U" unicode="U" horiz-adv-x="611" 
d="M106 700v-484q0 -44 14.5 -79.5t40.5 -60t62.5 -37.5t81.5 -13t81.5 13t62.5 37.5t40.5 60t14.5 79.5v484h42v-471q0 -57 -17 -102t-48.5 -75.5t-76 -47t-99.5 -16.5t-99.5 16.5t-76 47t-48.5 75.5t-17 102v471h42z" />
    <glyph glyph-name="Uacute" unicode="&#xda;" horiz-adv-x="611" 
d="M249 741l119 138h51l-133 -138h-37zM106 700v-484q0 -44 14.5 -79.5t40.5 -60t62.5 -37.5t81.5 -13t81.5 13t62.5 37.5t40.5 60t14.5 79.5v484h42v-471q0 -57 -17 -102t-48.5 -75.5t-76 -47t-99.5 -16.5t-99.5 16.5t-76 47t-48.5 75.5t-17 102v471h42z" />
    <glyph glyph-name="Ucircumflex" unicode="&#xdb;" horiz-adv-x="611" 
d="M441 741h-42l-94 114l-94 -114h-40l107 138h54zM106 700v-484q0 -44 14.5 -79.5t40.5 -60t62.5 -37.5t81.5 -13t81.5 13t62.5 37.5t40.5 60t14.5 79.5v484h42v-471q0 -57 -17 -102t-48.5 -75.5t-76 -47t-99.5 -16.5t-99.5 16.5t-76 47t-48.5 75.5t-17 102v471h42z" />
    <glyph glyph-name="Udieresis" unicode="&#xdc;" horiz-adv-x="611" 
d="M193 799q0 14 10 24t24 10t24 -10t10 -24t-10 -24t-24 -10t-24 10t-10 24zM351 799q0 14 10 24t24 10t24 -10t10 -24t-10 -24t-24 -10t-24 10t-10 24zM106 700v-484q0 -44 14.5 -79.5t40.5 -60t62.5 -37.5t81.5 -13t81.5 13t62.5 37.5t40.5 60t14.5 79.5v484h42v-471
q0 -57 -17 -102t-48.5 -75.5t-76 -47t-99.5 -16.5t-99.5 16.5t-76 47t-48.5 75.5t-17 102v471h42z" />
    <glyph glyph-name="Ugrave" unicode="&#xd9;" horiz-adv-x="611" 
d="M326 741l-133 138h51l119 -138h-37zM106 700v-484q0 -44 14.5 -79.5t40.5 -60t62.5 -37.5t81.5 -13t81.5 13t62.5 37.5t40.5 60t14.5 79.5v484h42v-471q0 -57 -17 -102t-48.5 -75.5t-76 -47t-99.5 -16.5t-99.5 16.5t-76 47t-48.5 75.5t-17 102v471h42z" />
    <glyph glyph-name="V" unicode="V" horiz-adv-x="500" 
d="M23 700l195 -633q8 -23 13 -32t12 -9t12 9t13 32l209 633h41l-219 -663q-10 -31 -23.5 -40t-32.5 -9q-20 0 -33.5 9t-23.5 40l-204 663h41z" />
    <glyph glyph-name="W" unicode="W" horiz-adv-x="944" 
d="M493 700v-468q0 -55 16 -94t41 -64t56.5 -36.5t63.5 -11.5q35 0 66 12t53.5 34.5t35.5 54t13 70.5v503h42v-508q0 -48 -16 -86t-44 -64t-66 -40t-81 -14q-73 0 -119 31.5t-82 96.5q-36 -65 -82 -96.5t-119 -31.5q-43 0 -81 14t-66 40t-44 64t-16 86v508h42v-503
q0 -39 13 -70.5t35.5 -54t53.5 -34.5t66 -12q31 0 63 11.5t57 36.5t41 64t16 94v468h42z" />
    <glyph glyph-name="X" unicode="X" horiz-adv-x="611" 
d="M594 662q-49 0 -97 -23.5t-86 -65.5t-61.5 -98.5t-23.5 -122.5t23.5 -122.5t61.5 -98.5t86 -65.5t97 -23.5v-42q-51 0 -97 18t-83.5 50t-65.5 76t-42 97h-2q-14 -53 -42 -97t-65.5 -76t-83.5 -50t-97 -18v42q49 0 97 23.5t86 65.5t61.5 98.5t23.5 122.5t-23.5 122.5
t-61.5 98.5t-86 65.5t-97 23.5v42q51 0 97 -18t83.5 -50t65.5 -76t42 -97h2q14 53 42 97t65.5 76t83.5 50t97 18v-42z" />
    <glyph glyph-name="Y" unicode="Y" 
d="M492 700v-191q0 -50 -16 -90.5t-43 -68.5t-62 -43t-72 -15v-292h-42v292q-38 0 -72.5 15t-61.5 43t-43 68.5t-16 90.5v191h42v-194q0 -40 13 -72.5t35.5 -55.5t54 -35.5t69.5 -12.5q37 0 69 12.5t54.5 35.5t35.5 55.5t13 72.5v194h42z" />
    <glyph glyph-name="Ydieresis" unicode="&#x178;" 
d="M165 799q0 14 10 24t24 10t24 -10t10 -24t-10 -24t-24 -10t-24 10t-10 24zM323 799q0 14 10 24t24 10t24 -10t10 -24t-10 -24t-24 -10t-24 10t-10 24zM492 700v-191q0 -50 -16 -90.5t-43 -68.5t-62 -43t-72 -15v-292h-42v292q-38 0 -72.5 15t-61.5 43t-43 68.5t-16 90.5
v191h42v-194q0 -40 13 -72.5t35.5 -55.5t54 -35.5t69.5 -12.5q37 0 69 12.5t54.5 35.5t35.5 55.5t13 72.5v194h42z" />
    <glyph glyph-name="Z" unicode="Z" horiz-adv-x="500" 
d="M470 0h-391q-32 0 -45.5 11.5t-13.5 32.5q0 18 6.5 33t21.5 37l350 495q13 17 16.5 25t3.5 16q0 12 -16 12h-344v38h343q61 0 61 -44q0 -23 -8 -39t-25 -39l-356 -505q-6 -8 -7.5 -12.5t-1.5 -9.5q0 -13 18 -13h388v-38z" />
    <glyph glyph-name="a" unicode="a" 
d="M458 0v237q0 41 -14 79t-39.5 67.5t-61 47t-78.5 17.5q-36 0 -70.5 -16t-61 -44t-43 -66.5t-16.5 -84.5t16.5 -84.5t43 -66.5t61 -44t70.5 -16q48 0 82.5 18.5t65.5 50.5v-45l-25 -19.5t-32.5 -19.5t-41 -15t-49.5 -6q-48 0 -90.5 18.5t-73.5 51.5t-49 78t-18 99t18 99
t49 78t73.5 51.5t90.5 18.5t90.5 -18.5t73.5 -51.5t49 -78t18 -99v-237h-38z" />
    <glyph glyph-name="aacute" unicode="&#xe1;" 
d="M221 534l119 138h51l-133 -138h-37zM458 0v237q0 41 -14 79t-39.5 67.5t-61 47t-78.5 17.5q-36 0 -70.5 -16t-61 -44t-43 -66.5t-16.5 -84.5t16.5 -84.5t43 -66.5t61 -44t70.5 -16q48 0 82.5 18.5t65.5 50.5v-45l-25 -19.5t-32.5 -19.5t-41 -15t-49.5 -6
q-48 0 -90.5 18.5t-73.5 51.5t-49 78t-18 99t18 99t49 78t73.5 51.5t90.5 18.5t90.5 -18.5t73.5 -51.5t49 -78t18 -99v-237h-38z" />
    <glyph glyph-name="acircumflex" unicode="&#xe2;" 
d="M413 534h-42l-94 114l-94 -114h-40l107 138h54zM458 0v237q0 41 -14 79t-39.5 67.5t-61 47t-78.5 17.5q-36 0 -70.5 -16t-61 -44t-43 -66.5t-16.5 -84.5t16.5 -84.5t43 -66.5t61 -44t70.5 -16q48 0 82.5 18.5t65.5 50.5v-45l-25 -19.5t-32.5 -19.5t-41 -15t-49.5 -6
q-48 0 -90.5 18.5t-73.5 51.5t-49 78t-18 99t18 99t49 78t73.5 51.5t90.5 18.5t90.5 -18.5t73.5 -51.5t49 -78t18 -99v-237h-38z" />
    <glyph glyph-name="acute" unicode="&#xb4;" horiz-adv-x="222" 
d="M54 534l119 138h51l-133 -138h-37z" />
    <glyph glyph-name="adieresis" unicode="&#xe4;" 
d="M165 592q0 14 10 24t24 10t24 -10t10 -24t-10 -24t-24 -10t-24 10t-10 24zM323 592q0 14 10 24t24 10t24 -10t10 -24t-10 -24t-24 -10t-24 10t-10 24zM458 0v237q0 41 -14 79t-39.5 67.5t-61 47t-78.5 17.5q-36 0 -70.5 -16t-61 -44t-43 -66.5t-16.5 -84.5t16.5 -84.5
t43 -66.5t61 -44t70.5 -16q48 0 82.5 18.5t65.5 50.5v-45l-25 -19.5t-32.5 -19.5t-41 -15t-49.5 -6q-48 0 -90.5 18.5t-73.5 51.5t-49 78t-18 99t18 99t49 78t73.5 51.5t90.5 18.5t90.5 -18.5t73.5 -51.5t49 -78t18 -99v-237h-38z" />
    <glyph glyph-name="ae" unicode="&#xe6;" horiz-adv-x="944" 
d="M414 318l-61 -16t-72.5 -20.5t-74 -26.5t-65 -34t-46.5 -43t-18 -53q0 -26 14.5 -44.5t36 -30.5t47 -18t46.5 -6q51 0 89 17t63.5 45.5t38.5 65.5t13 78q0 30 -4.5 50t-6.5 36zM64 439q30 16 74 30.5t95 14.5q33 0 65.5 -7.5t61 -24.5t52 -44t38.5 -67q15 38 39 65
t54 44.5t63 25.5t65 8q33 0 64.5 -10t58.5 -27t49.5 -41.5t37.5 -52.5l-366 -157l-14 34l318 137q-64 81 -154 81q-38 0 -73.5 -16.5t-64 -44t-45.5 -64t-17 -75.5q0 -47 15 -87.5t43 -70.5t67 -47t87 -17q35 0 67 12.5t57.5 34.5t42.5 51.5t23 64.5l40 -7
q-12 -51 -35.5 -87.5t-56 -59.5t-73 -34t-86.5 -11q-33 0 -65 11t-59.5 29.5t-49 44.5t-34.5 56q-30 -72 -87 -106.5t-134 -34.5q-35 0 -69 7t-61 23.5t-43.5 43.5t-16.5 66q0 35 19.5 63t51 50.5t70.5 39.5t79 30.5t77 23l63 16.5q-13 27 -31.5 45.5t-41 29.5t-47.5 15.5
t-50 4.5q-38 0 -74 -12.5t-69 -27.5z" />
    <glyph glyph-name="agrave" unicode="&#xe0;" 
d="M298 534l-133 138h51l119 -138h-37zM458 0v237q0 41 -14 79t-39.5 67.5t-61 47t-78.5 17.5q-36 0 -70.5 -16t-61 -44t-43 -66.5t-16.5 -84.5t16.5 -84.5t43 -66.5t61 -44t70.5 -16q48 0 82.5 18.5t65.5 50.5v-45l-25 -19.5t-32.5 -19.5t-41 -15t-49.5 -6
q-48 0 -90.5 18.5t-73.5 51.5t-49 78t-18 99t18 99t49 78t73.5 51.5t90.5 18.5t90.5 -18.5t73.5 -51.5t49 -78t18 -99v-237h-38z" />
    <glyph glyph-name="ampersand" unicode="&#x26;" horiz-adv-x="667" 
d="M196 476q-61 -32 -95.5 -83.5t-34.5 -121.5q0 -51 16.5 -95.5t48.5 -77.5t79 -52.5t108 -19.5q31 0 58.5 3t52 11.5t47.5 23t47 37.5zM500 700v-36h-282q-38 0 -51 -12.5t-13 -40.5q0 -25 17.5 -49t46.5 -57l331 -374q20 31 28 65t8 76q0 65 -23 106t-65 76l25 25
q55 -45 79 -95.5t24 -121.5q0 -42 -12.5 -85.5t-38.5 -76.5l81 -100h-49l-57 73q-50 -47 -105 -66t-128 -19q-50 0 -101.5 15.5t-93.5 49t-68.5 85t-26.5 123.5q0 49 11 86t30.5 65.5t45.5 50t56 39.5q-17 21 -27.5 36.5t-16 27.5t-7.5 23t-2 25q0 47 32 66t82 20h270z" />
    <glyph glyph-name="aring" unicode="&#xe5;" 
d="M209 631q0 -29 20 -49t49 -20t49 20t20 49t-20 49t-49 20t-49 -20t-20 -49zM181 631q0 41 28 69t69 28t69 -28t28 -69t-28 -69t-69 -28t-69 28t-28 69zM458 0v237q0 41 -14 79t-39.5 67.5t-61 47t-78.5 17.5q-36 0 -70.5 -16t-61 -44t-43 -66.5t-16.5 -84.5t16.5 -84.5
t43 -66.5t61 -44t70.5 -16q48 0 82.5 18.5t65.5 50.5v-45l-25 -19.5t-32.5 -19.5t-41 -15t-49.5 -6q-48 0 -90.5 18.5t-73.5 51.5t-49 78t-18 99t18 99t49 78t73.5 51.5t90.5 18.5t90.5 -18.5t73.5 -51.5t49 -78t18 -99v-237h-38z" />
    <glyph glyph-name="asciicircum" unicode="^" horiz-adv-x="600" 
d="M323 700l216 -424h-49l-190 380l-192 -380h-47l216 424h46z" />
    <glyph glyph-name="asciitilde" unicode="~" horiz-adv-x="600" 
d="M536 270q-20 -33 -51.5 -59.5t-78.5 -26.5q-23 0 -51 10.5t-57 23.5t-58.5 23.5t-55.5 10.5q-17 0 -30.5 -6.5t-24.5 -16.5t-20.5 -23l-18.5 -26l-26 24q20 33 51.5 59.5t78.5 26.5q24 0 52.5 -10.5t57.5 -23.5t59 -23.5t56 -10.5q31 0 52.5 23t38.5 49z" />
    <glyph glyph-name="asterisk" unicode="*" horiz-adv-x="500" 
d="M278 526l138 -82l-18 -25l-133 79v-158h-30v158l-133 -79l-18 25l138 82l-138 82l18 24l133 -80v148h30v-148l133 80l18 -24z" />
    <glyph glyph-name="at" unicode="@" horiz-adv-x="800" 
d="M331 164q38 0 71 27.5t58 67.5t39 85.5t14 81.5q0 19 -7.5 37.5t-20 33.5t-28 24t-31.5 9q-42 0 -77 -25.5t-60 -64t-39 -83t-14 -83.5q0 -50 27 -80t68 -30zM563 546h41l-96 -287q-5 -16 -8 -33.5t-1.5 -32t9.5 -24t25 -9.5q35 0 66.5 24t55 61.5t36.5 83t11 88.5
q0 60 -24 108t-63.5 81.5t-91.5 51.5t-107 18q-68 0 -126.5 -26t-101 -71t-66.5 -105t-24 -127q0 -66 25 -125t68.5 -103t102 -69.5t124.5 -25.5q92 0 159 37t111 103h41q-23 -41 -56.5 -73.5t-74 -55t-86 -35t-92.5 -12.5q-77 0 -143 29t-115 78.5t-76.5 116t-27.5 141.5
q0 74 28.5 139.5t77.5 114t114 77t138 28.5q69 0 128.5 -22.5t103.5 -61.5t69 -91.5t25 -113.5q0 -63 -19.5 -116.5t-50.5 -93.5t-69.5 -62.5t-76.5 -22.5q-28 0 -47 18.5t-21 53.5l-2 -2q-24 -24 -57.5 -45t-71.5 -21q-31 0 -55 11.5t-41 31.5t-26 46t-9 56q0 52 17 103.5
t48 92.5t74.5 67t96.5 26q33 0 61 -19.5t45 -64.5z" />
    <glyph glyph-name="atilde" unicode="&#xe3;" 
d="M132 549q3 16 8.5 31.5t15.5 28t23.5 20.5t31.5 8q16 0 34 -8.5t36 -18.5l34.5 -18.5t28.5 -8.5q26 0 36 16t14 38h30q-3 -16 -8.5 -31.5t-15.5 -28t-23.5 -20.5t-31.5 -8q-16 0 -34 8.5t-36 18.5l-34.5 18.5t-28.5 8.5q-26 0 -36 -16t-14 -38h-30zM458 0v237
q0 41 -14 79t-39.5 67.5t-61 47t-78.5 17.5q-36 0 -70.5 -16t-61 -44t-43 -66.5t-16.5 -84.5t16.5 -84.5t43 -66.5t61 -44t70.5 -16q48 0 82.5 18.5t65.5 50.5v-45l-25 -19.5t-32.5 -19.5t-41 -15t-49.5 -6q-48 0 -90.5 18.5t-73.5 51.5t-49 78t-18 99t18 99t49 78
t73.5 51.5t90.5 18.5t90.5 -18.5t73.5 -51.5t49 -78t18 -99v-237h-38z" />
    <glyph glyph-name="b" unicode="b" 
d="M98 700v-463q0 -41 14 -79.5t39.5 -67.5t61 -46.5t78.5 -17.5q36 0 70.5 16t61 44t43 66.5t16.5 84.5t-16.5 84.5t-43 66.5t-61 44t-70.5 16q-48 0 -82.5 -18.5t-65.5 -50.5v45l25 19.5t32.5 19.5t41 15t49.5 6q48 0 90.5 -18.5t73.5 -51.5t49 -78t18 -99t-18 -99
t-49 -78t-73.5 -51.5t-90.5 -18.5t-90.5 18.5t-73.5 51.5t-49 78t-18 99v463h38z" />
    <glyph glyph-name="backslash" unicode="\" horiz-adv-x="278" 
d="M-26 712l371 -724h-40l-371 724h40z" />
    <glyph glyph-name="bar" unicode="|" horiz-adv-x="222" 
d="M91 700h40v-700h-40v700z" />
    <glyph glyph-name="braceleft" unicode="{" horiz-adv-x="278" 
d="M66 281q16 0 26.5 13t16.5 34.5t8.5 49.5t2.5 57v157q0 36 4.5 59t13 36.5t21 19t28.5 5.5h39v-38h-38q-8 0 -13.5 -4t-9 -14.5t-5.5 -30t-2 -50.5v-157q0 -39 -7 -67t-16 -47t-17.5 -28.5t-11.5 -12.5v-2q3 -2 11.5 -12t17.5 -29t16 -47t7 -67v-155q0 -31 2 -50.5
t5.5 -30t9 -14.5t13.5 -4h38v-38h-39q-16 0 -28.5 5t-21 18.5t-13 37t-4.5 59.5v156q0 29 -2.5 56.5t-8.5 49t-16.5 34.5t-26.5 13v38z" />
    <glyph glyph-name="braceright" unicode="}" horiz-adv-x="278" 
d="M212 243q-16 0 -26.5 -13t-16.5 -34.5t-8.5 -49.5t-2.5 -57v-157q0 -36 -4.5 -59.5t-13 -37t-21 -18.5t-28.5 -5h-39v38h38q7 0 13 4t9.5 14.5t5.5 30t2 50.5v157q0 39 7 67t16 47t17.5 28.5t11.5 12.5v2q-3 2 -11.5 12t-17.5 28.5t-16 47t-7 67.5v155q0 31 -2 50.5
t-5.5 30t-9.5 14.5t-13 4h-38v38h39q16 0 28.5 -5.5t21 -19t13 -36.5t4.5 -59v-156q0 -29 2.5 -56.5t8.5 -49t16.5 -34.5t26.5 -13v-38z" />
    <glyph glyph-name="bracketleft" unicode="[" horiz-adv-x="278" 
d="M226 700v-38h-98v-810h98v-38h-136v886h136z" />
    <glyph glyph-name="bracketright" unicode="]" horiz-adv-x="278" 
d="M188 700v-886h-136v38h98v810h-98v38h136z" />
    <glyph glyph-name="breve" unicode="&#x2d8;" horiz-adv-x="222" 
d="M244 656q-3 -27 -14.5 -48.5t-29.5 -37.5t-41 -24.5t-50 -8.5q-26 0 -49 8.5t-41 24.5t-29 38t-12 48h30q2 -19 11 -35t22.5 -27.5t31 -18t36.5 -6.5q42 0 70 22.5t35 64.5h30z" />
    <glyph glyph-name="bullet" unicode="&#x2022;" horiz-adv-x="500" 
d="M75 350q0 36 13.5 68t37.5 56t56 37.5t68 13.5t68 -13.5t56 -37.5t37.5 -56t13.5 -68t-13.5 -68t-37.5 -56t-56 -37.5t-68 -13.5t-68 13.5t-56 37.5t-37.5 56t-13.5 68z" />
    <glyph glyph-name="c" unicode="c" horiz-adv-x="389" 
d="M351 444h-69q-45 0 -82.5 -14.5t-64.5 -41.5t-42 -64t-15 -82t15 -82t42 -64t64.5 -41.5t82.5 -14.5h69v-40h-71q-52 0 -96 17.5t-76.5 49.5t-51 76.5t-18.5 98.5t18.5 98.5t51 76.5t76.5 49.5t96 17.5h71v-40z" />
    <glyph glyph-name="caron" unicode="&#x2c7;" horiz-adv-x="222" 
d="M137 534h-54l-107 138h40l94 -114l94 114h42z" />
    <glyph glyph-name="ccedilla" unicode="&#xe7;" horiz-adv-x="389" 
d="M158 -147q18 -9 38 -14t40 -4q21 -1 42.5 11t21.5 36q0 26 -18 35.5t-40 9.5q-8 0 -21.5 -4t-21.5 -8l-16 13l56 75q-44 6 -81 26t-63.5 51t-41.5 72t-15 90q0 54 18.5 98.5t51 76.5t76.5 49.5t96 17.5h71v-40h-69q-45 0 -82.5 -14.5t-64.5 -41.5t-42 -64t-15 -82t15 -82
t42 -64t64.5 -41.5t82.5 -14.5h69v-40h-71h-10l-45 -53l2 -2q6 5 17.5 6.5t20.5 1.5q31 0 53 -19t22 -51q0 -21 -10.5 -35t-26.5 -22.5t-35 -12.5t-36 -4q-21 0 -44 5.5t-43 14.5z" />
    <glyph glyph-name="cedilla" unicode="&#xb8;" horiz-adv-x="222" 
d="M16 -147q18 -9 38 -14t40 -4q21 -1 42.5 11t21.5 36q0 26 -18 35.5t-40 9.5q-8 0 -21.5 -4t-21.5 -8l-16 13l56 75h34l-48 -56l2 -2q6 5 17.5 6.5t20.5 1.5q31 0 53 -19t22 -51q0 -21 -10.5 -35t-26.5 -22.5t-35 -12.5t-36 -4q-21 0 -44 5.5t-43 14.5z" />
    <glyph glyph-name="cent" unicode="&#xa2;" 
d="M366 518h-115q-70 0 -108.5 -37.5t-38.5 -102.5t38.5 -102.5t108.5 -37.5h115v-38h-81v-158h-40v158q-39 0 -73 12t-58.5 34.5t-39 55.5t-14.5 76t14.5 76t39 55.5t58.5 34.5t73 12v144h40v-144h81v-38z" />
    <glyph glyph-name="circumflex" unicode="&#x2c6;" horiz-adv-x="222" 
d="M246 534h-42l-94 114l-94 -114h-40l107 138h54z" />
    <glyph glyph-name="colon" unicode=":" horiz-adv-x="278" 
d="M96 350q0 16 11 27t27 11t27 -11t11 -27t-11 -27t-27 -11t-27 11t-11 27zM96 32q0 16 11 27t27 11t27 -11t11 -27t-11 -27t-27 -11t-27 11t-11 27z" />
    <glyph glyph-name="comma" unicode="," horiz-adv-x="278" 
d="M119 72h49l-50 -154h-40z" />
    <glyph glyph-name="copyright" unicode="&#xa9;" horiz-adv-x="800" 
d="M583 276q-8 -30 -23 -56t-36.5 -45.5t-49.5 -30.5t-62 -11q-49 0 -88 15.5t-66 44t-41.5 69t-14.5 89.5q0 45 14.5 84.5t41.5 69t65 46t86 16.5q35 0 64.5 -11.5t52 -31t37 -44.5t20.5 -52h-42q-9 42 -43 72.5t-88 30.5q-40 0 -70.5 -14t-51.5 -38.5t-31.5 -57.5
t-10.5 -70q0 -35 11.5 -68t33 -58.5t52 -40.5t69.5 -15q53 0 87 31t42 76h42zM399 26q66 0 123.5 26t99.5 70.5t66 103t24 124.5t-24 124.5t-66 103t-99.5 70.5t-123.5 26q-67 0 -124 -26t-98.5 -70.5t-65 -103t-23.5 -124.5t23.5 -124.5t65 -103t98.5 -70.5t124 -26z
M399 -12q-75 0 -139.5 28.5t-112.5 78t-75.5 115.5t-27.5 140t27.5 140t75.5 115.5t112.5 78t139.5 28.5t140 -28.5t113 -78t76 -115.5t28 -140t-28 -140t-76 -115.5t-113 -78t-140 -28.5z" />
    <glyph glyph-name="currency" unicode="&#xa4;" 
d="M70 350q0 -43 16.5 -81t44.5 -66t66 -44.5t81 -16.5t81 16.5t66 44.5t44.5 66t16.5 81t-16.5 81t-44.5 66t-66 44.5t-81 16.5t-81 -16.5t-66 -44.5t-44.5 -66t-16.5 -81zM522 136l-29 -30l-55 55q-32 -28 -72.5 -43.5t-87.5 -15.5t-87.5 15.5t-72.5 43.5l-55 -55l-29 30
l55 55q-28 32 -43.5 72.5t-15.5 86.5t15.5 86.5t43.5 72.5l-55 55l29 30l55 -55q32 28 72.5 43.5t87.5 15.5t87.5 -15.5t72.5 -43.5l55 55l29 -30l-55 -55q28 -32 43.5 -72.5t15.5 -86.5t-15.5 -86.5t-43.5 -72.5z" />
    <glyph glyph-name="d" unicode="d" 
d="M496 700v-463q0 -54 -18 -99t-49 -78t-73.5 -51.5t-90.5 -18.5t-90.5 18.5t-73.5 51.5t-49 78t-18 99t18 99t49 78t73.5 51.5t90.5 18.5q27 0 49.5 -6t41 -15t32.5 -19.5l25 -19.5v-45q-31 32 -65.5 50.5t-82.5 18.5q-36 0 -70.5 -16t-61 -44t-43 -66.5t-16.5 -84.5
t16.5 -84.5t43 -66.5t61 -44t70.5 -16q43 0 78.5 17.5t61 46.5t39.5 67.5t14 79.5v463h38z" />
    <glyph glyph-name="dagger" unicode="&#x2020;" horiz-adv-x="500" 
d="M88 507l150 -13l-15 206h53l-15 -206l151 13v-54l-151 15q-1 -23 1 -49.5t5 -50.5t6 -42.5t3 -25.5q0 -9 -3 -35t-6.5 -73t-6.5 -116.5t-2 -165.5h-16q1 96 -2 165.5t-6.5 116.5t-6.5 73t-3 35q0 7 3 25.5t6 42.5t5 50.5t1 49.5l-151 -15v54z" />
    <glyph glyph-name="daggerdbl" unicode="&#x2021;" horiz-adv-x="500" 
d="M261 110l15 -206h-53l15 206l-150 -13v54l151 -15q1 22 -1 48.5t-5 50.5t-6 42.5t-3 24.5t3 24t6 42t5 50.5t1 49.5l-151 -15v54l150 -13l-15 206h53l-15 -206l151 13v-54l-151 15q-1 -23 1 -49.5t5 -50.5t6 -42t3 -24t-3 -24.5t-6 -42.5t-5 -50.5t-1 -48.5l151 15v-54z
" />
    <glyph glyph-name="degree" unicode="&#xb0;" horiz-adv-x="400" 
d="M200 456q22 0 42 9t34.5 25t23 36t8.5 43q0 22 -8.5 42.5t-23 36.5t-34.5 25t-42 9q-23 0 -42.5 -9t-34 -25t-23 -36.5t-8.5 -42.5q0 -23 8.5 -43t23 -36t34 -25t42.5 -9zM200 426q-30 0 -56.5 11t-46 30.5t-30.5 45.5t-11 56t11 56t30.5 45.5t46 30.5t56.5 11t56 -11
t45.5 -30.5t31 -45.5t11.5 -56t-11.5 -56t-31 -45.5t-45.5 -30.5t-56 -11z" />
    <glyph glyph-name="dieresis" unicode="&#xa8;" horiz-adv-x="222" 
d="M156 592q0 14 10 24t24 10t24 -10t10 -24t-10 -24t-24 -10t-24 10t-10 24zM-2 592q0 14 10 24t24 10t24 -10t10 -24t-10 -24t-24 -10t-24 10t-10 24z" />
    <glyph glyph-name="divide" unicode="&#xf7;" horiz-adv-x="600" 
d="M248 430q0 22 15 37t37 15t37 -15t15 -37t-15 -37t-37 -15t-37 15t-15 37zM248 44q0 22 15 37t37 15t37 -15t15 -37t-15 -37t-37 -15t-37 15t-15 37zM64 217v40h472v-40h-472z" />
    <glyph glyph-name="dollar" unicode="$" 
d="M281 664q-29 0 -54 -3.5t-43.5 -14.5t-29 -31t-10.5 -53q0 -29 11 -49t29.5 -34t43.5 -24t53 -18v227zM319 136q72 1 112 28.5t40 82.5q0 34 -12.5 56.5t-33.5 38.5t-48.5 26t-57.5 19v-251zM474 700v-36h-155v-238q35 -11 69 -23t61 -31t43.5 -47.5t16.5 -72.5
q0 -76 -50.5 -114t-139.5 -38v-100h-38v100h-175v36h175v262q-33 9 -64.5 20.5t-56 30t-39.5 46.5t-15 70q0 34 12.5 59.5t33.5 42.5t49.5 25t60.5 8h19v66h38v-66h155z" />
    <glyph glyph-name="dotaccent" unicode="&#x2d9;" horiz-adv-x="222" 
d="M111 558q-14 0 -24 10t-10 24t10 24t24 10t24 -10t10 -24t-10 -24t-24 -10z" />
    <glyph glyph-name="dotlessi" unicode="&#x131;" horiz-adv-x="222" 
d="M92 0v474h38v-474h-38z" />
    <glyph glyph-name="e" unicode="e" 
d="M132 170l305 206q-26 33 -65.5 52.5t-87.5 19.5q-45 0 -83 -17.5t-65.5 -47t-42.5 -68.5t-15 -81t15.5 -80t43 -66.5t65.5 -45t82 -16.5q43 0 80.5 16t65.5 44t44.5 64t17.5 77h40q-1 -47 -20 -90t-51 -75.5t-75.5 -52t-93.5 -19.5q-56 0 -102.5 19t-80 52t-52.5 78
t-19 97q0 50 18 95t50.5 79t77.5 54t100 20q69 0 124 -32t87 -84l-339 -230z" />
    <glyph glyph-name="eacute" unicode="&#xe9;" 
d="M221 534l119 138h51l-133 -138h-37zM132 170l305 206q-26 33 -65.5 52.5t-87.5 19.5q-45 0 -83 -17.5t-65.5 -47t-42.5 -68.5t-15 -81t15.5 -80t43 -66.5t65.5 -45t82 -16.5q43 0 80.5 16t65.5 44t44.5 64t17.5 77h40q-1 -47 -20 -90t-51 -75.5t-75.5 -52t-93.5 -19.5
q-56 0 -102.5 19t-80 52t-52.5 78t-19 97q0 50 18 95t50.5 79t77.5 54t100 20q69 0 124 -32t87 -84l-339 -230z" />
    <glyph glyph-name="ecircumflex" unicode="&#xea;" 
d="M413 534h-42l-94 114l-94 -114h-40l107 138h54zM132 170l305 206q-26 33 -65.5 52.5t-87.5 19.5q-45 0 -83 -17.5t-65.5 -47t-42.5 -68.5t-15 -81t15.5 -80t43 -66.5t65.5 -45t82 -16.5q43 0 80.5 16t65.5 44t44.5 64t17.5 77h40q-1 -47 -20 -90t-51 -75.5t-75.5 -52
t-93.5 -19.5q-56 0 -102.5 19t-80 52t-52.5 78t-19 97q0 50 18 95t50.5 79t77.5 54t100 20q69 0 124 -32t87 -84l-339 -230z" />
    <glyph glyph-name="edieresis" unicode="&#xeb;" 
d="M165 592q0 14 10 24t24 10t24 -10t10 -24t-10 -24t-24 -10t-24 10t-10 24zM323 592q0 14 10 24t24 10t24 -10t10 -24t-10 -24t-24 -10t-24 10t-10 24zM132 170l305 206q-26 33 -65.5 52.5t-87.5 19.5q-45 0 -83 -17.5t-65.5 -47t-42.5 -68.5t-15 -81t15.5 -80t43 -66.5
t65.5 -45t82 -16.5q43 0 80.5 16t65.5 44t44.5 64t17.5 77h40q-1 -47 -20 -90t-51 -75.5t-75.5 -52t-93.5 -19.5q-56 0 -102.5 19t-80 52t-52.5 78t-19 97q0 50 18 95t50.5 79t77.5 54t100 20q69 0 124 -32t87 -84l-339 -230z" />
    <glyph glyph-name="egrave" unicode="&#xe8;" 
d="M298 534l-133 138h51l119 -138h-37zM132 170l305 206q-26 33 -65.5 52.5t-87.5 19.5q-45 0 -83 -17.5t-65.5 -47t-42.5 -68.5t-15 -81t15.5 -80t43 -66.5t65.5 -45t82 -16.5q43 0 80.5 16t65.5 44t44.5 64t17.5 77h40q-1 -47 -20 -90t-51 -75.5t-75.5 -52t-93.5 -19.5
q-56 0 -102.5 19t-80 52t-52.5 78t-19 97q0 50 18 95t50.5 79t77.5 54t100 20q69 0 124 -32t87 -84l-339 -230z" />
    <glyph glyph-name="eight" unicode="8" 
d="M415 550q0 60 -36 94t-101 34t-101 -34t-36 -94q0 -26 8 -50t25 -43.5t43 -31t61 -11.5t61 11.5t43 31t25 43.5t8 50zM278 380q-34 0 -67.5 -11.5t-60.5 -33.5t-43.5 -54.5t-16.5 -74.5q0 -44 16 -78.5t42 -58t60 -35.5t70 -12t70 12t60 35.5t42 58t16 78.5
q0 42 -16.5 74.5t-43.5 54.5t-60.5 33.5t-67.5 11.5zM351 402q33 -6 62 -23t50.5 -42.5t34 -59t12.5 -71.5q0 -55 -20.5 -96t-53.5 -68t-74.5 -40.5t-83.5 -13.5t-83.5 13.5t-74.5 40.5t-53.5 68t-20.5 96q0 38 12.5 71.5t34 59t50.5 42.5t62 23v2q-46 17 -77 51.5t-31 94.5
q0 72 48.5 117t132.5 45t132.5 -45t48.5 -117q0 -60 -31 -94.5t-77 -51.5v-2z" />
    <glyph glyph-name="ellipsis" unicode="&#x2026;" horiz-adv-x="1000" 
d="M462 32q0 16 11 27t27 11t27 -11t11 -27t-11 -27t-27 -11t-27 11t-11 27zM795 32q0 16 11 27t27 11t27 -11t11 -27t-11 -27t-27 -11t-27 11t-11 27zM129 32q0 16 11 27t27 11t27 -11t11 -27t-11 -27t-27 -11t-27 11t-11 27z" />
    <glyph glyph-name="emdash" unicode="&#x2014;" horiz-adv-x="1000" 
d="M0 256h1000v-38h-1000v38z" />
    <glyph glyph-name="endash" unicode="&#x2013;" horiz-adv-x="500" 
d="M0 256h500v-38h-500v38z" />
    <glyph glyph-name="equal" unicode="=" horiz-adv-x="600" 
d="M64 309v40h472v-40h-472zM64 125v40h472v-40h-472z" />
    <glyph glyph-name="exclam" unicode="!" horiz-adv-x="222" 
d="M68 32q0 16 11 27t27 11t27 -11t11 -27t-11 -27t-27 -11t-27 11t-11 27zM87 138v574h38v-574h-38z" />
    <glyph glyph-name="exclamdown" unicode="&#xa1;" horiz-adv-x="222" 
d="M78 452q0 16 11 27t27 11t27 -11t11 -27t-11 -27t-27 -11t-27 11t-11 27zM135 346v-574h-38v574h38z" />
    <glyph glyph-name="f" unicode="f" horiz-adv-x="278" 
d="M294 438h-196v-438h-38v553q0 38 14.5 65.5t37.5 45.5t51 27t55 9h76v-36h-76q-21 0 -42.5 -7t-38.5 -21.5t-28 -37.5t-11 -55v-69h196v-36z" />
    <glyph glyph-name="fi" unicode="&#xfb01;" horiz-adv-x="500" 
d="M363 608q0 13 8.5 21.5t21.5 8.5t21.5 -8.5t8.5 -21.5t-8.5 -21.5t-21.5 -8.5t-21.5 8.5t-8.5 21.5zM374 0v474h38v-474h-38zM312 438h-196v-438h-38v553q0 38 14.5 65.5t37.5 45.5t51 27t55 9h76v-36h-76q-21 0 -42.5 -7t-38.5 -21.5t-28 -37.5t-11 -55v-69h196v-36z
" />
    <glyph glyph-name="five" unicode="5" 
d="M270 412q53 0 93 -17.5t67 -46.5t40.5 -67t13.5 -80q0 -41 -14.5 -77.5t-44 -64t-74 -43.5t-103.5 -16h-182v40h196q47 0 81 14.5t55.5 37.5t32 53t9.5 61q-1 34 -12 64.5t-32.5 53t-54.5 35.5t-77 13h-176v328h347v-36h-307v-252h142z" />
    <glyph glyph-name="fl" unicode="&#xfb02;" horiz-adv-x="500" 
d="M374 0v700h38v-700h-38zM312 438h-196v-438h-38v553q0 38 14.5 65.5t37.5 45.5t51 27t55 9h76v-36h-76q-21 0 -42.5 -7t-38.5 -21.5t-28 -37.5t-11 -55v-69h196v-36z" />
    <glyph glyph-name="florin" unicode="&#x192;" 
d="M128 354v40h138l10 103q4 40 16.5 78.5t36 69t59 49t86.5 18.5q18 0 37 -5.5t36 -12.5l-11 -34q-21 8 -37.5 10t-33.5 2q-65 -1 -103 -52.5t-47 -170.5l-4 -55h146v-40h-148l-20 -325q-4 -42 -15.5 -87.5t-34 -83t-58 -62t-86.5 -24.5q-23 0 -44 4t-41 14l10 41
q17 -8 36 -13.5t43 -5.5q34 0 60 18.5t44 50t28.5 74t13.5 89.5l19 310h-136z" />
    <glyph glyph-name="four" unicode="4" 
d="M73 198q-27 0 -39 11.5t-12 29.5q0 14 8 29.5t31 53.5l238 390h45l-274 -449q-2 -3 -3 -6t-1 -10q0 -13 15 -13h282v428l36 48l2 2v-478h119v-36h-119v-198h-37v198h-291z" />
    <glyph glyph-name="fraction" unicode="&#x2044;" horiz-adv-x="167" 
d="M-167 -12l462 724h39l-464 -724h-37z" />
    <glyph glyph-name="fraction" unicode="&#x2215;" horiz-adv-x="167" 
d="M-167 -12l462 724h39l-464 -724h-37z" />
    <glyph glyph-name="g" unicode="g" 
d="M133 -168q27 -11 58.5 -17.5t61.5 -6.5q48 0 86 11.5t64.5 38t40.5 69.5t14 105v205q0 41 -14 79t-39.5 67.5t-61 47t-78.5 17.5q-36 0 -70.5 -16t-61 -44t-43 -66.5t-16.5 -84.5t16.5 -84.5t43 -66.5t61 -44t70.5 -16q48 0 82.5 18.5t65.5 50.5v-45l-25 -19.5
t-32.5 -19.5t-41 -15t-49.5 -6q-48 0 -90.5 18.5t-73.5 51.5t-49 78t-18 99t18 99t49 78t73.5 51.5t90.5 18.5t90.5 -18.5t73.5 -51.5t49 -78t18 -99v-231q1 -56 -17 -99.5t-49.5 -73.5t-75.5 -45.5t-96 -15.5q-71 0 -137 24z" />
    <glyph glyph-name="germandbls" unicode="&#xdf;" 
d="M6 432h60v102q0 38 14 70.5t39 56.5t59 37.5t75 13.5q34 0 63 -8.5t50.5 -25t34 -40t12.5 -52.5q0 -50 -22 -79t-48.5 -45.5t-48.5 -24.5t-22 -16q0 -5 17.5 -11.5l44 -17t57.5 -27t57.5 -41t44 -58.5t17.5 -80q0 -186 -235 -186h-128v38h132q97 0 144 38.5t47 97.5
q0 50 -18 82.5t-45 53.5t-58 34l-58 24t-45 22.5t-18 30.5q0 14 10.5 24t27 19l35 18.5t35 22.5t27 30.5t10.5 42.5q0 27 -10.5 45.5t-27.5 29.5t-38.5 16t-42.5 5q-37 0 -64.5 -12.5t-46 -33t-28 -46.5t-9.5 -52v-530h-40v392h-60v40z" />
    <glyph glyph-name="grave" unicode="`" horiz-adv-x="222" 
d="M131 534l-133 138h51l119 -138h-37z" />
    <glyph glyph-name="greater" unicode="&#x3e;" horiz-adv-x="600" 
d="M64 481l472 -219v-50l-472 -219v44l432 200l-432 200v44z" />
    <glyph glyph-name="guillemotleft" unicode="&#xab;" horiz-adv-x="389" 
d="M290 82l-120 155l120 155h47l-120 -155l120 -155h-47zM167 82l-120 155l120 155h47l-120 -155l120 -155h-47z" />
    <glyph glyph-name="guillemotright" unicode="&#xbb;" horiz-adv-x="389" 
d="M52 82l120 155l-120 155h47l120 -155l-120 -155h-47zM175 82l120 155l-120 155h47l120 -155l-120 -155h-47z" />
    <glyph glyph-name="guilsinglleft" unicode="&#x2039;" horiz-adv-x="278" 
d="M171 82l-120 155l120 155h47l-120 -155l120 -155h-47z" />
    <glyph glyph-name="guilsinglright" unicode="&#x203a;" horiz-adv-x="278" 
d="M60 82l120 155l-120 155h47l120 -155l-120 -155h-47z" />
    <glyph glyph-name="h" unicode="h" horiz-adv-x="500" 
d="M402 0v284q0 37 -12 67.5t-33 52t-48.5 33t-58.5 11.5t-58.5 -11.5t-48.5 -33t-33 -52t-12 -67.5v-284h-38v700h38v-290h2q25 35 64 54.5t86 19.5q40 0 74.5 -14t60 -39.5t40.5 -61.5t15 -80v-289h-38z" />
    <glyph glyph-name="hungarumlaut" unicode="&#x2dd;" horiz-adv-x="222" 
d="M107 534l119 138h51l-133 -138h-37zM0 534l114 138h51l-128 -138h-37z" />
    <glyph glyph-name="hyphen" unicode="-" horiz-adv-x="333" 
d="M72 218v38h190v-38h-190z" />
    <glyph glyph-name="hyphen" unicode="&#xad;" horiz-adv-x="333" 
d="M72 218v38h190v-38h-190z" />
    <glyph glyph-name="i" unicode="i" horiz-adv-x="222" 
d="M81 608q0 13 8.5 21.5t21.5 8.5t21.5 -8.5t8.5 -21.5t-8.5 -21.5t-21.5 -8.5t-21.5 8.5t-8.5 21.5zM92 0v474h38v-474h-38z" />
    <glyph glyph-name="iacute" unicode="&#xed;" horiz-adv-x="222" 
d="M54 534l119 138h51l-133 -138h-37zM92 0v474h38v-474h-38z" />
    <glyph glyph-name="icircumflex" unicode="&#xee;" horiz-adv-x="222" 
d="M246 534h-42l-94 114l-94 -114h-40l107 138h54zM92 0v474h38v-474h-38z" />
    <glyph glyph-name="idieresis" unicode="&#xef;" horiz-adv-x="222" 
d="M-2 592q0 14 10 24t24 10t24 -10t10 -24t-10 -24t-24 -10t-24 10t-10 24zM156 592q0 14 10 24t24 10t24 -10t10 -24t-10 -24t-24 -10t-24 10t-10 24zM92 0v474h38v-474h-38z" />
    <glyph glyph-name="igrave" unicode="&#xec;" horiz-adv-x="222" 
d="M131 534l-133 138h51l119 -138h-37zM92 0v474h38v-474h-38z" />
    <glyph glyph-name="j" unicode="j" horiz-adv-x="222" 
d="M81 608q0 13 8.5 21.5t21.5 8.5t21.5 -8.5t8.5 -21.5t-8.5 -21.5t-21.5 -8.5t-21.5 8.5t-8.5 21.5zM130 474v-555q0 -38 -14.5 -65.5t-37.5 -45.5t-51 -27t-55 -9h-22v36h22q21 0 42.5 7t38.5 21.5t28 37.5t11 55v545h38z" />
    <glyph glyph-name="k" unicode="k" horiz-adv-x="444" 
d="M60 0v700h38v-424h78q37 0 64.5 30.5t63.5 84.5l56 83h46l-69 -104l-34 -52t-44 -44v-2q24 -1 47.5 -9.5t42 -26.5t30 -45.5t11.5 -64.5v-126h-38v124q0 23 -8.5 44t-24 37t-37.5 25.5t-50 9.5h-134v-240h-38z" />
    <glyph glyph-name="l" unicode="l" horiz-adv-x="222" 
d="M92 0v700h38v-700h-38z" />
    <glyph glyph-name="less" unicode="&#x3c;" horiz-adv-x="600" 
d="M536 437l-432 -200l432 -200v-44l-472 219v50l472 219v-44z" />
    <glyph glyph-name="logicalnot" unicode="&#xac;" horiz-adv-x="600" 
d="M496 309h-432v40h472v-224h-40v184z" />
    <glyph glyph-name="m" unicode="m" horiz-adv-x="722" 
d="M342 0v314q0 34 -10.5 59t-28 41.5t-39.5 25t-45 8.5t-45 -8.5t-39.5 -25t-28 -41.5t-10.5 -59v-314h-38v314q0 41 12.5 73t34.5 53.5t51.5 32.5t62.5 11q57 0 91.5 -24t49.5 -69h2q15 45 49.5 69t91.5 24q33 0 62.5 -11t51.5 -32.5t34.5 -53.5t12.5 -73v-314h-38v314
q0 34 -10.5 59t-28 41.5t-39.5 25t-45 8.5t-45.5 -8.5t-39.5 -25t-27.5 -41.5t-10.5 -59v-314h-38z" />
    <glyph glyph-name="macron" unicode="&#xaf;" horiz-adv-x="222" 
d="M-28 574v32h279v-32h-279z" />
    <glyph glyph-name="macron" unicode="&#x2c9;" horiz-adv-x="222" 
d="M-28 574v32h279v-32h-279z" />
    <glyph glyph-name="mu" unicode="&#xb5;" horiz-adv-x="500" 
d="M440 474v-289q0 -44 -15 -80t-40.5 -61.5t-60 -39.5t-74.5 -14q-47 0 -86 19.5t-64 54.5h-2v-292h-38v702h38v-284q0 -37 12 -67.5t33 -52t48.5 -33t58.5 -11.5t58.5 11.5t48.5 33t33 52t12 67.5v284h38z" />
    <glyph glyph-name="mu" unicode="&#x3bc;" horiz-adv-x="500" 
d="M440 474v-289q0 -44 -15 -80t-40.5 -61.5t-60 -39.5t-74.5 -14q-47 0 -86 19.5t-64 54.5h-2v-292h-38v702h38v-284q0 -37 12 -67.5t33 -52t48.5 -33t58.5 -11.5t58.5 11.5t48.5 33t33 52t12 67.5v284h38z" />
    <glyph glyph-name="n" unicode="n" horiz-adv-x="500" 
d="M402 0v284q0 37 -12 67.5t-33 52t-48.5 33t-58.5 11.5t-58.5 -11.5t-48.5 -33t-33 -52t-12 -67.5v-284h-38v289q0 44 15 80t40.5 61.5t60 39.5t74.5 14t74.5 -14t60 -39.5t40.5 -61.5t15 -80v-289h-38z" />
    <glyph glyph-name="nine" unicode="9" 
d="M217 0l182 271l37 57t24 45.5t12.5 44.5t3.5 53q0 46 -16.5 83t-44 63.5t-63.5 40.5t-74 14t-74 -14t-63.5 -40.5t-44 -64t-16.5 -84.5q0 -46 16.5 -83.5t44 -64t63.5 -41t74 -14.5q50 0 85 14l-29 -46q-17 -5 -29.5 -6.5t-26.5 -1.5q-46 1 -89.5 17t-77.5 47t-54.5 76
t-20.5 103q0 56 20.5 101t54.5 76.5t77.5 48.5t89.5 17t89.5 -16t77.5 -46.5t54.5 -75.5t20.5 -103q0 -34 -6 -61.5t-18 -53.5t-29 -53l-39 -60l-161 -243h-50z" />
    <glyph glyph-name="ntilde" unicode="&#xf1;" horiz-adv-x="500" 
d="M104 549q3 16 8.5 31.5t15.5 28t23.5 20.5t31.5 8q16 0 34 -8.5t36 -18.5l34.5 -18.5t28.5 -8.5q26 0 36 16t14 38h30q-3 -16 -8.5 -31.5t-15.5 -28t-23.5 -20.5t-31.5 -8q-16 0 -34 8.5t-36 18.5l-34.5 18.5t-28.5 8.5q-26 0 -36 -16t-14 -38h-30zM402 0v284
q0 37 -12 67.5t-33 52t-48.5 33t-58.5 11.5t-58.5 -11.5t-48.5 -33t-33 -52t-12 -67.5v-284h-38v289q0 44 15 80t40.5 61.5t60 39.5t74.5 14t74.5 -14t60 -39.5t40.5 -61.5t15 -80v-289h-38z" />
    <glyph glyph-name="numbersign" unicode="#" 
d="M219 434l-22 -162h149l22 162h-149zM497 232h-115l-32 -232h-42l32 232h-149l-32 -232h-42l32 232h-114l-4 40h124l22 162h-114l-4 40h123l32 226h42l-32 -226h149l32 226h42l-32 -226h106l4 -40h-115l-22 -162h105z" />
    <glyph glyph-name="o" unicode="o" 
d="M278 448q-44 0 -80.5 -17.5t-63 -47t-41.5 -67.5t-15 -79t15 -79.5t41.5 -67.5t63 -46.5t80.5 -17.5q43 0 80 17.5t63.5 46.5t41.5 67.5t15 79.5t-15 79t-41.5 67.5t-63.5 47t-80 17.5zM278 484q51 0 95 -20t76 -53.5t50.5 -78.5t18.5 -95t-18.5 -95t-50.5 -79t-76 -53.5
t-95 -19.5t-95 19.5t-76 53.5t-50.5 79t-18.5 95t18.5 95t50.5 78.5t76 53.5t95 20z" />
    <glyph glyph-name="oacute" unicode="&#xf3;" 
d="M221 534l119 138h51l-133 -138h-37zM278 448q-44 0 -80.5 -17.5t-63 -47t-41.5 -67.5t-15 -79t15 -79.5t41.5 -67.5t63 -46.5t80.5 -17.5q43 0 80 17.5t63.5 46.5t41.5 67.5t15 79.5t-15 79t-41.5 67.5t-63.5 47t-80 17.5zM278 484q51 0 95 -20t76 -53.5t50.5 -78.5
t18.5 -95t-18.5 -95t-50.5 -79t-76 -53.5t-95 -19.5t-95 19.5t-76 53.5t-50.5 79t-18.5 95t18.5 95t50.5 78.5t76 53.5t95 20z" />
    <glyph glyph-name="ocircumflex" unicode="&#xf4;" 
d="M413 534h-42l-94 114l-94 -114h-40l107 138h54zM278 448q-44 0 -80.5 -17.5t-63 -47t-41.5 -67.5t-15 -79t15 -79.5t41.5 -67.5t63 -46.5t80.5 -17.5q43 0 80 17.5t63.5 46.5t41.5 67.5t15 79.5t-15 79t-41.5 67.5t-63.5 47t-80 17.5zM278 484q51 0 95 -20t76 -53.5
t50.5 -78.5t18.5 -95t-18.5 -95t-50.5 -79t-76 -53.5t-95 -19.5t-95 19.5t-76 53.5t-50.5 79t-18.5 95t18.5 95t50.5 78.5t76 53.5t95 20z" />
    <glyph glyph-name="odieresis" unicode="&#xf6;" 
d="M323 592q0 14 10 24t24 10t24 -10t10 -24t-10 -24t-24 -10t-24 10t-10 24zM165 592q0 14 10 24t24 10t24 -10t10 -24t-10 -24t-24 -10t-24 10t-10 24zM278 448q-44 0 -80.5 -17.5t-63 -47t-41.5 -67.5t-15 -79t15 -79.5t41.5 -67.5t63 -46.5t80.5 -17.5q43 0 80 17.5
t63.5 46.5t41.5 67.5t15 79.5t-15 79t-41.5 67.5t-63.5 47t-80 17.5zM278 484q51 0 95 -20t76 -53.5t50.5 -78.5t18.5 -95t-18.5 -95t-50.5 -79t-76 -53.5t-95 -19.5t-95 19.5t-76 53.5t-50.5 79t-18.5 95t18.5 95t50.5 78.5t76 53.5t95 20z" />
    <glyph glyph-name="oe" unicode="&#x153;" horiz-adv-x="1000" 
d="M78 234q0 -42 15 -80t41.5 -66.5t63 -45t79.5 -16.5q42 0 79 17t64 45.5t42.5 66t15.5 79.5t-15 81t-41.5 68.5t-63.5 47t-81 17.5t-81 -17.5t-63 -47t-40.5 -68.5t-14.5 -81zM581 165l-18 36l339 144q-26 51 -74 77t-104 26q-44 0 -81.5 -16t-65 -43.5t-43.5 -64.5
t-16 -78q0 -42 15.5 -81.5t43 -70.5t66 -49.5t84.5 -18.5q36 0 69 12.5t60 34.5t45.5 51t26.5 64l39 -7q-9 -41 -31 -76t-53.5 -60.5t-70.5 -40t-81 -14.5q-51 1 -90 15t-67 35.5t-46.5 47.5t-29.5 50q-13 -32 -34.5 -59t-49 -47t-60.5 -31t-70 -11q-52 0 -97 19t-78 52
t-52 78t-19 97q0 50 18 95t50.5 79t76 54t94.5 20q38 0 72 -11t62.5 -30.5t50 -47t35.5 -59.5q13 26 31 52.5t44.5 47.5t63 34.5t86.5 13.5q39 0 75.5 -11t67 -31t54.5 -49.5t38 -66.5z" />
    <glyph glyph-name="ogonek" unicode="&#x2db;" horiz-adv-x="222" 
d="M202 12q-75 -27 -106.5 -58.5t-31.5 -71.5q0 -24 21.5 -36t42.5 -11q20 -1 40 4t38 14l14 -19q-35 -15 -55 -20t-43 -5q-39 0 -68.5 18.5t-29.5 55.5q0 36 19.5 60t47 40t58 25t53.5 14v-10z" />
    <glyph glyph-name="ograve" unicode="&#xf2;" 
d="M298 534l-133 138h51l119 -138h-37zM278 448q-44 0 -80.5 -17.5t-63 -47t-41.5 -67.5t-15 -79t15 -79.5t41.5 -67.5t63 -46.5t80.5 -17.5q43 0 80 17.5t63.5 46.5t41.5 67.5t15 79.5t-15 79t-41.5 67.5t-63.5 47t-80 17.5zM278 484q51 0 95 -20t76 -53.5t50.5 -78.5
t18.5 -95t-18.5 -95t-50.5 -79t-76 -53.5t-95 -19.5t-95 19.5t-76 53.5t-50.5 79t-18.5 95t18.5 95t50.5 78.5t76 53.5t95 20z" />
    <glyph glyph-name="one" unicode="1" 
d="M155 700h146v-700h-38v664h-117z" />
    <glyph glyph-name="ordfeminine" unicode="&#xaa;" horiz-adv-x="334" 
d="M275 422v142q0 22 -8 43t-23 37.5t-37 27t-50 10.5t-50 -10.5t-37 -27t-23 -37.5t-8 -43t8 -43t23 -37.5t37 -27t50 -10.5q29 0 56.5 15t39.5 38v-40q-14 -18 -37 -30.5t-59 -12.5q-35 0 -63 12.5t-47.5 33t-29.5 47t-10 55.5q0 32 11.5 59.5t32 47t47.5 30.5t59 11
q34 0 61.5 -11t47 -30.5t30.5 -47t11 -59.5v-142h-32z" />
    <glyph glyph-name="ordmasculine" unicode="&#xba;" horiz-adv-x="334" 
d="M291 562q0 24 -9.5 45.5t-26 38t-39 26.5t-49.5 10t-50 -10t-39.5 -26.5t-25.5 -38t-9 -45.5q0 -23 9.5 -44t26 -37t39.5 -25.5t49 -9.5t49 9.5t39.5 25.5t26 37t9.5 44zM323 564q0 -30 -12 -57t-33 -47.5t-49.5 -32t-61.5 -11.5t-61.5 11.5t-49.5 32t-33 47.5t-12 57
t12 57t33 47.5t49.5 32t61.5 11.5t61.5 -11.5t49.5 -32t33 -47.5t12 -57z" />
    <glyph glyph-name="oslash" unicode="&#xf8;" 
d="M408 396q-26 24 -59 38t-71 14q-44 0 -80.5 -17.5t-63 -47t-41.5 -67.5t-15 -79q0 -36 11.5 -70t34.5 -62zM147 79q24 -24 57.5 -38.5t73.5 -14.5q43 0 80 17.5t63.5 46.5t41.5 67.5t15 79.5q0 37 -12 71t-34 62zM554 494l-95 -96q28 -32 43.5 -73t15.5 -88
q0 -50 -18.5 -95t-50.5 -79t-76 -53.5t-95 -19.5q-47 0 -87 16.5t-71 45.5l-70 -72h-48l94 97q-28 32 -43 73.5t-15 86.5q0 50 18.5 95t50.5 78.5t76 53.5t95 20q46 0 85.5 -16t71.5 -45l69 71h50z" />
    <glyph glyph-name="otilde" unicode="&#xf5;" 
d="M132 549q3 16 8.5 31.5t15.5 28t23.5 20.5t31.5 8q16 0 34 -8.5t36 -18.5l34.5 -18.5t28.5 -8.5q26 0 36 16t14 38h30q-3 -16 -8.5 -31.5t-15.5 -28t-23.5 -20.5t-31.5 -8q-16 0 -34 8.5t-36 18.5l-34.5 18.5t-28.5 8.5q-26 0 -36 -16t-14 -38h-30zM278 448
q-44 0 -80.5 -17.5t-63 -47t-41.5 -67.5t-15 -79t15 -79.5t41.5 -67.5t63 -46.5t80.5 -17.5q43 0 80 17.5t63.5 46.5t41.5 67.5t15 79.5t-15 79t-41.5 67.5t-63.5 47t-80 17.5zM278 484q51 0 95 -20t76 -53.5t50.5 -78.5t18.5 -95t-18.5 -95t-50.5 -79t-76 -53.5t-95 -19.5
t-95 19.5t-76 53.5t-50.5 79t-18.5 95t18.5 95t50.5 78.5t76 53.5t95 20z" />
    <glyph glyph-name="p" unicode="p" 
d="M60 -228v465q0 54 18 99t49 78t73.5 51.5t90.5 18.5t90.5 -18.5t73.5 -51.5t49 -78t18 -99t-18 -99t-49 -78t-73.5 -51.5t-90.5 -18.5q-27 0 -49.5 6t-41 15t-32.5 19.5l-25 19.5v45q31 -32 65.5 -50.5t82.5 -18.5q36 0 70.5 16t61 44t43 66.5t16.5 84.5t-16.5 84.5
t-43 66.5t-61 44t-70.5 16q-43 0 -78.5 -17.5t-61 -47t-39.5 -67.5t-14 -79v-465h-38z" />
    <glyph glyph-name="paragraph" unicode="&#xb6;" horiz-adv-x="600" 
d="M471 -90h-38v754h-121v-754h-38v404q-33 0 -65.5 15t-57.5 41.5t-40.5 61.5t-15.5 75t15.5 75t40.5 61t57.5 41.5t65.5 15.5h197v-790z" />
    <glyph glyph-name="parenleft" unicode="(" horiz-adv-x="389" 
d="M352 689q-93 -83 -145.5 -188t-52.5 -238q0 -61 14.5 -121t41.5 -115t65 -103.5t85 -86.5l-19 -23q-53 37 -94.5 87t-70.5 108.5t-44.5 123t-15.5 130.5q0 71 15.5 135.5t44 121t68.5 105t89 87.5z" />
    <glyph glyph-name="parenright" unicode=")" horiz-adv-x="389" 
d="M56 712q49 -39 89 -87.5t68.5 -105t44 -121t15.5 -135.5q0 -66 -15.5 -130.5t-44.5 -123t-70.5 -108.5t-94.5 -87l-19 23q47 38 85 86.5t65 103.5t41.5 115t14.5 121q0 133 -52.5 238t-145.5 188z" />
    <glyph glyph-name="percent" unicode="%" horiz-adv-x="889" 
d="M179 -12l462 724h39l-464 -724h-37zM331 563q0 22 -8.5 42.5t-23.5 35.5t-35 24t-44 9t-44 -9t-35 -24t-23.5 -35.5t-8.5 -42.5q0 -23 8.5 -43t23.5 -35t35 -24t44 -9t44 9t35 24t23.5 35t8.5 43zM751 137q0 22 -8.5 42.5t-23.5 35.5t-35 24t-44 9t-44 -9t-35 -24
t-23.5 -35.5t-8.5 -42.5q0 -23 8.5 -43t23.5 -35t35 -24t44 -9t44 9t35 24t23.5 35t8.5 43zM640 286q31 0 58.5 -12t48 -32t32.5 -47t12 -58t-12 -58t-32.5 -47.5t-48 -32t-58.5 -11.5t-58.5 11.5t-48 32t-32.5 47.5t-12 58t12 58t32.5 47t48 32t58.5 12zM220 712
q31 0 58.5 -12t48 -32t32.5 -47t12 -58t-12 -58t-32.5 -47.5t-48 -32t-58.5 -11.5t-58.5 11.5t-48 32t-32.5 47.5t-12 58t12 58t32.5 47t48 32t58.5 12z" />
    <glyph glyph-name="period" unicode="." horiz-adv-x="278" 
d="M96 32q0 16 11 27t27 11t27 -11t11 -27t-11 -27t-27 -11t-27 11t-11 27z" />
    <glyph glyph-name="periodcentered" unicode="&#xb7;" horiz-adv-x="278" 
d="M102 237q0 15 11 26t26 11t26 -11t11 -26t-11 -26t-26 -11t-26 11t-11 26z" />
    <glyph glyph-name="periodcentered" unicode="&#x2219;" horiz-adv-x="278" 
d="M102 237q0 15 11 26t26 11t26 -11t11 -26t-11 -26t-26 -11t-26 11t-11 26z" />
    <glyph glyph-name="perthousand" unicode="&#x2030;" horiz-adv-x="1000" 
d="M63 -12l462 724h39l-464 -724h-37zM576 137q0 22 -8.5 42.5t-23.5 35.5t-35 24t-44 9t-44 -9t-35 -24t-23.5 -35.5t-8.5 -42.5q0 -23 8.5 -43t23.5 -35t35 -24t44 -9t44 9t35 24t23.5 35t8.5 43zM268 563q0 22 -8.5 42.5t-23.5 35.5t-35 24t-44 9t-44 -9t-35 -24
t-23.5 -35.5t-8.5 -42.5q0 -23 8.5 -43t23.5 -35t35 -24t44 -9t44 9t35 24t23.5 35t8.5 43zM951 137q0 22 -8.5 42.5t-23.5 35.5t-35 24t-44 9t-44 -9t-35 -24t-23.5 -35.5t-8.5 -42.5q0 -23 8.5 -43t23.5 -35t35 -24t44 -9t44 9t35 24t23.5 35t8.5 43zM157 712
q31 0 58.5 -12t48 -32t32.5 -47t12 -58t-12 -58t-32.5 -47.5t-48 -32t-58.5 -11.5t-58.5 11.5t-48 32t-32.5 47.5t-12 58t12 58t32.5 47t48 32t58.5 12zM465 286q31 0 58.5 -12t48 -32t32.5 -47t12 -58t-12 -58t-32.5 -47.5t-48 -32t-58.5 -11.5t-58.5 11.5t-48 32
t-32.5 47.5t-12 58t12 58t32.5 47t48 32t58.5 12zM840 286q31 0 58.5 -12t48 -32t32.5 -47t12 -58t-12 -58t-32.5 -47.5t-48 -32t-58.5 -11.5t-58.5 11.5t-48 32t-32.5 47.5t-12 58t12 58t32.5 47t48 32t58.5 12z" />
    <glyph glyph-name="plus" unicode="+" horiz-adv-x="600" 
d="M281 474h40v-217h215v-40h-215v-217h-40v217h-217v40h217v217z" />
    <glyph glyph-name="plusminus" unicode="&#xb1;" horiz-adv-x="600" 
d="M64 40h472v-40h-472v40zM280 474h40v-175h216v-40h-216v-175h-40v175h-216v40h216v175z" />
    <glyph glyph-name="q" unicode="q" 
d="M458 -226v463q0 41 -14 79t-39.5 67.5t-61 47t-78.5 17.5q-36 0 -70.5 -16t-61 -44t-43 -66.5t-16.5 -84.5t16.5 -84.5t43 -66.5t61 -44t70.5 -16q48 0 82.5 18.5t65.5 50.5v-45l-25 -19.5t-32.5 -19.5t-41 -15t-49.5 -6q-48 0 -90.5 18.5t-73.5 51.5t-49 78t-18 99
t18 99t49 78t73.5 51.5t90.5 18.5t90.5 -18.5t73.5 -51.5t49 -78t18 -99v-463h-38z" />
    <glyph glyph-name="question" unicode="?" horiz-adv-x="444" 
d="M167 32q0 16 11 27t27 11t27 -11t11 -27t-11 -27t-27 -11t-27 11t-11 27zM22 514q0 41 14 77t40 63t63 42.5t83 15.5t83 -15.5t63 -42.5t40 -63t14 -77q0 -57 -19 -96.5t-48 -63.5t-64 -35t-67 -11v-180h-38v216q35 0 70 7t63 26t45.5 52t17.5 85q0 33 -11.5 62t-32.5 51
t-50.5 34.5t-65.5 12.5t-65.5 -12.5t-50.5 -34.5t-32.5 -51t-11.5 -62h-40z" />
    <glyph glyph-name="questiondown" unicode="&#xbf;" horiz-adv-x="444" 
d="M277 452q0 -16 -11 -27t-27 -11t-27 11t-11 27t11 27t27 11t27 -11t11 -27zM422 -30q0 -41 -14 -77t-40 -63t-63 -42.5t-83 -15.5t-83 15.5t-63 42.5t-40 63t-14 77q0 57 19 96.5t48 63.5t64 35t67 11v180h38v-216q-35 0 -70 -7t-63 -26t-45.5 -52t-17.5 -85
q0 -33 11.5 -62t32.5 -51t50.5 -34.5t65.5 -12.5t65.5 12.5t50.5 34.5t32.5 51t11.5 62h40z" />
    <glyph glyph-name="quotedbl" unicode="&#x22;" horiz-adv-x="333" 
d="M198 700h38v-226h-38v226zM98 700h38v-226h-38v226z" />
    <glyph glyph-name="quotedblbase" unicode="&#x201e;" horiz-adv-x="333" 
d="M197 -82l28 154h42l-34 -154h-36zM67 -82l28 154h42l-34 -154h-36z" />
    <glyph glyph-name="quotedblleft" unicode="&#x201c;" horiz-adv-x="333" 
d="M100 546l-34 154h42l28 -154h-36zM230 546l-34 154h42l28 -154h-36z" />
    <glyph glyph-name="quotedblright" unicode="&#x201d;" horiz-adv-x="333" 
d="M197 546l28 154h42l-34 -154h-36zM67 546l28 154h42l-34 -154h-36z" />
    <glyph glyph-name="quoteleft" unicode="&#x2018;" horiz-adv-x="222" 
d="M110 546l-34 154h42l28 -154h-36z" />
    <glyph glyph-name="quoteright" unicode="&#x2019;" horiz-adv-x="222" 
d="M76 546l28 154h42l-34 -154h-36z" />
    <glyph glyph-name="quotesinglbase" unicode="&#x201a;" horiz-adv-x="222" 
d="M76 -82l28 154h42l-34 -154h-36z" />
    <glyph glyph-name="quotesingle" unicode="'" horiz-adv-x="222" 
d="M92 700h38v-226h-38v226z" />
    <glyph glyph-name="r" unicode="r" horiz-adv-x="278" 
d="M60 0v474h38v-91h2q17 36 55 63.5t85 27.5h44v-36h-40q-28 0 -54 -14t-46.5 -39t-33 -60t-12.5 -77v-248h-38z" />
    <glyph glyph-name="registered" unicode="&#xae;" horiz-adv-x="800" 
d="M384 370q24 0 47.5 1.5t41.5 9t29 23t11 43.5q0 22 -8.5 36.5t-23 23t-33 11.5t-37.5 3h-109v-151h82zM302 135h-38v422h159q67 0 99.5 -26.5t32.5 -84.5q0 -57 -29 -81t-75 -31l128 -199h-54l-121 199h-102v-199zM399 26q66 0 123.5 26t99.5 70.5t66 103t24 124.5
t-24 124.5t-66 103t-99.5 70.5t-123.5 26q-67 0 -124 -26t-98.5 -70.5t-65 -103t-23.5 -124.5t23.5 -124.5t65 -103t98.5 -70.5t124 -26zM399 -12q-75 0 -139.5 28.5t-112.5 78t-75.5 115.5t-27.5 140t27.5 140t75.5 115.5t112.5 78t139.5 28.5t140 -28.5t113 -78t76 -115.5
t28 -140t-28 -140t-76 -115.5t-113 -78t-140 -28.5z" />
    <glyph glyph-name="ring" unicode="&#x2da;" horiz-adv-x="222" 
d="M42 631q0 -29 20 -49t49 -20t49 20t20 49t-20 49t-49 20t-49 -20t-20 -49zM14 631q0 41 28 69t69 28t69 -28t28 -69t-28 -69t-69 -28t-69 28t-28 69z" />
    <glyph glyph-name="s" unicode="s" horiz-adv-x="444" 
d="M38 36h212q63 0 89 22t26 58q0 39 -24.5 60.5t-60.5 33.5t-79 20.5t-79 22t-60.5 38t-24.5 68.5q0 23 8 44t23.5 36.5t38 25t51.5 9.5h213v-36h-210q-31 0 -56.5 -19.5t-25.5 -58.5q0 -35 24.5 -53.5t60.5 -29t79 -19t79 -23t60.5 -40.5t24.5 -73q0 -63 -43.5 -92.5
t-122.5 -29.5h-203v36z" />
    <glyph glyph-name="section" unicode="&#xa7;" horiz-adv-x="500" 
d="M312 201q35 0 58.5 21.5t23.5 56.5q0 22 -14 41t-36 35t-47.5 28.5t-48.5 21.5t-40.5 13.5t-21.5 4.5q-35 0 -58.5 -21.5t-23.5 -56.5q0 -22 14 -41t36 -35t47.5 -28.5t48.5 -21.5t40 -13.5t22 -4.5zM118 23q13 -16 26.5 -29t30 -22.5t38.5 -15t51 -5.5q53 0 82.5 27.5
t29.5 63.5q0 40 -23 66t-57 45t-74 35t-74 36t-57 48t-23 71q0 26 9.5 45.5t25.5 32.5t37.5 19.5t44.5 6.5l2 2q-17 8 -34.5 19.5t-31.5 27.5t-23 37.5t-9 48.5q0 28 11 52t31 41.5t46.5 27t58.5 9.5q56 0 99 -25.5t72 -71.5l-29 -27q-20 42 -56.5 68t-83.5 26
q-54 0 -83.5 -28t-29.5 -65q0 -39 22.5 -65t57 -46t74 -37t74 -39t57 -51t22.5 -73q0 -45 -30 -72t-74 -29v-2q16 -8 31.5 -20t27.5 -27t19.5 -32.5t7.5 -37.5q0 -68 -43.5 -102.5t-109.5 -34.5q-33 0 -57.5 6t-44.5 16.5t-36.5 24t-31.5 28.5z" />
    <glyph glyph-name="semicolon" unicode=";" horiz-adv-x="278" 
d="M96 350q0 16 11 27t27 11t27 -11t11 -27t-11 -27t-27 -11t-27 11t-11 27zM119 72h49l-50 -154h-40z" />
    <glyph glyph-name="seven" unicode="7" 
d="M37 700h419q35 0 49 -11.5t14 -33.5q0 -18 -6.5 -35t-15.5 -37l-258 -583h-46l271 610l10 22t5 17q0 15 -20 15h-422v36z" />
    <glyph glyph-name="six" unicode="6" 
d="M339 700l-182 -271l-37 -57t-24 -45.5t-12.5 -44.5t-3.5 -53q0 -46 16.5 -83t44 -63.5t63.5 -40.5t74 -14t74 14t63.5 40.5t44 64t16.5 84.5q0 46 -16.5 83.5t-44 64t-63.5 41t-74 14.5q-50 0 -85 -14l29 46q17 5 29.5 6.5t26.5 1.5q46 -1 89.5 -17t77.5 -47t54.5 -76
t20.5 -103q0 -56 -20.5 -101t-54.5 -76.5t-77.5 -48.5t-89.5 -17t-89.5 16t-77.5 46.5t-54.5 75.5t-20.5 103q0 34 6 61.5t18 53.5t29 53l39 60l161 243h50z" />
    <glyph glyph-name="slash" unicode="/" horiz-adv-x="278" 
d="M237 712h41l-236 -724h-41z" />
    <glyph glyph-name="space" unicode=" " horiz-adv-x="278" 
 />
    <glyph glyph-name="space" unicode="&#xa0;" horiz-adv-x="278" 
 />
    <glyph glyph-name="sterling" unicode="&#xa3;" 
d="M-10 40h14q57 0 91.5 34.5t34.5 93.5v183h-66v40h66v95q0 42 9.5 82.5t31.5 72.5t58.5 51.5t90.5 19.5q32 0 55.5 -5t49.5 -13l-14 -34q-19 5 -40 9.5t-45 4.5q-44 0 -73.5 -14.5t-48 -40.5t-26.5 -62t-8 -79v-87h123v-40h-123v-152q0 -33 -2 -56.5t-8 -41t-17 -31
t-29 -28.5v-2h200q78 0 120 44.5t42 119.5v65h40v-73q0 -41 -12.5 -76.5t-36.5 -62t-60 -42t-83 -15.5h-334v40z" />
    <glyph glyph-name="t" unicode="t" horiz-adv-x="278" 
d="M98 474h168v-36h-168v-306q0 -45 25 -70.5t67 -25.5h76v-36h-68q-68 0 -103 36.5t-35 99.5v468h38v-130z" />
    <glyph glyph-name="three" unicode="3" 
d="M63 700h319q33 0 43.5 -10.5t10.5 -26.5q0 -30 -25 -53l-212 -200h75q51 0 91 -15.5t67 -42.5t41.5 -63.5t14.5 -78.5q0 -104 -62.5 -157t-167.5 -53h-200v38h224q34 0 63.5 12t51.5 33t34.5 50.5t12.5 64.5q0 78 -46.5 125t-135.5 47h-125v27l237 228q18 17 18 29
q0 10 -10 10h-319v36z" />
    <glyph glyph-name="tilde" unicode="&#x2dc;" horiz-adv-x="222" 
d="M-35 549q3 16 8.5 31.5t15.5 28t23.5 20.5t31.5 8q16 0 34 -8.5t36 -18.5l34.5 -18.5t28.5 -8.5q26 0 36 16t14 38h30q-3 -16 -8.5 -31.5t-15.5 -28t-23.5 -20.5t-31.5 -8q-16 0 -34 8.5t-36 18.5l-34.5 18.5t-28.5 8.5q-26 0 -36 -16t-14 -38h-30z" />
    <glyph glyph-name="trademark" unicode="&#x2122;" horiz-adv-x="990" 
d="M405 662h-141v-374h-38v374h-141v38h320v-38zM695 354l143 346h67v-412h-38v368h-2l-161 -368h-18l-161 368h-2v-368h-38v412h67z" />
    <glyph glyph-name="two" unicode="2" 
d="M502 0h-408q-22 0 -33 14t-11 37q0 21 30 49t75 61.5l98 72t98 80t75 85t30 87.5q0 84 -46 135t-136 51q-91 0 -136.5 -50.5t-45.5 -131.5q0 -31 14 -62t38.5 -54.5t58 -35.5t72.5 -6l2 -3q-11 -8 -27 -18.5t-27 -10.5q-21 0 -51 12t-57.5 36t-47 60t-19.5 84
q0 101 58 160.5t168 59.5q43 0 84 -11.5t72.5 -38.5t50.5 -70t19 -106q0 -48 -30 -95.5t-75 -92t-98 -84.5l-98 -72.5t-75 -56.5t-30 -36q0 -3 3.5 -6t8.5 -3h396v-40z" />
    <glyph glyph-name="u" unicode="u" horiz-adv-x="500" 
d="M98 474v-284q0 -37 12 -67.5t33 -52t48.5 -33t58.5 -11.5t58.5 11.5t48.5 33t33 52t12 67.5v284h38v-289q0 -44 -15 -80t-40.5 -61.5t-60 -39.5t-74.5 -14t-74.5 14t-60 39.5t-40.5 61.5t-15 80v289h38z" />
    <glyph glyph-name="uacute" unicode="&#xfa;" horiz-adv-x="500" 
d="M193 534l119 138h51l-133 -138h-37zM98 474v-284q0 -37 12 -67.5t33 -52t48.5 -33t58.5 -11.5t58.5 11.5t48.5 33t33 52t12 67.5v284h38v-289q0 -44 -15 -80t-40.5 -61.5t-60 -39.5t-74.5 -14t-74.5 14t-60 39.5t-40.5 61.5t-15 80v289h38z" />
    <glyph glyph-name="ucircumflex" unicode="&#xfb;" horiz-adv-x="500" 
d="M385 534h-42l-94 114l-94 -114h-40l107 138h54zM98 474v-284q0 -37 12 -67.5t33 -52t48.5 -33t58.5 -11.5t58.5 11.5t48.5 33t33 52t12 67.5v284h38v-289q0 -44 -15 -80t-40.5 -61.5t-60 -39.5t-74.5 -14t-74.5 14t-60 39.5t-40.5 61.5t-15 80v289h38z" />
    <glyph glyph-name="udieresis" unicode="&#xfc;" horiz-adv-x="500" 
d="M137 592q0 14 10 24t24 10t24 -10t10 -24t-10 -24t-24 -10t-24 10t-10 24zM295 592q0 14 10 24t24 10t24 -10t10 -24t-10 -24t-24 -10t-24 10t-10 24zM98 474v-284q0 -37 12 -67.5t33 -52t48.5 -33t58.5 -11.5t58.5 11.5t48.5 33t33 52t12 67.5v284h38v-289
q0 -44 -15 -80t-40.5 -61.5t-60 -39.5t-74.5 -14t-74.5 14t-60 39.5t-40.5 61.5t-15 80v289h38z" />
    <glyph glyph-name="ugrave" unicode="&#xf9;" horiz-adv-x="500" 
d="M270 534l-133 138h51l119 -138h-37zM98 474v-284q0 -37 12 -67.5t33 -52t48.5 -33t58.5 -11.5t58.5 11.5t48.5 33t33 52t12 67.5v284h38v-289q0 -44 -15 -80t-40.5 -61.5t-60 -39.5t-74.5 -14t-74.5 14t-60 39.5t-40.5 61.5t-15 80v289h38z" />
    <glyph glyph-name="underscore" unicode="_" horiz-adv-x="500" 
d="M0 -125v50h500v-50h-500z" />
    <glyph glyph-name="v" unicode="v" horiz-adv-x="444" 
d="M448 474l-181 -459q-10 -25 -45 -25t-45 25l-181 459h44l168 -424q9 -20 14 -20q7 0 14 20l168 424h44z" />
    <glyph glyph-name="w" unicode="w" horiz-adv-x="722" 
d="M380 474v-314q0 -34 10.5 -59t27.5 -41.5t39.5 -25t45.5 -8.5t45 8.5t39.5 25t28 41.5t10.5 59v314h38v-314q0 -41 -12.5 -73t-34.5 -53.5t-51.5 -32.5t-62.5 -11q-57 0 -91.5 24t-49.5 69h-2q-15 -45 -49.5 -69t-91.5 -24q-33 0 -62.5 11t-51.5 32.5t-34.5 53.5
t-12.5 73v314h38v-314q0 -34 10.5 -59t28 -41.5t39.5 -25t45 -8.5t45 8.5t39.5 25t28 41.5t10.5 59v314h38z" />
    <glyph glyph-name="x" unicode="x" horiz-adv-x="444" 
d="M426 438q-35 0 -68.5 -15.5t-59 -43t-41 -64t-15.5 -78.5t15.5 -78.5t41 -64t59 -43t68.5 -15.5v-36q-69 0 -123.5 37.5t-80.5 102.5q-26 -65 -80.5 -102.5t-123.5 -37.5v36q35 0 68.5 15.5t59 43t41 64t15.5 78.5t-15.5 78.5t-41 64t-59 43t-68.5 15.5v36
q69 0 123.5 -37.5t80.5 -102.5q26 65 80.5 102.5t123.5 37.5v-36z" />
    <glyph glyph-name="y" unicode="y" horiz-adv-x="500" 
d="M229 -216v208q-36 3 -67 18t-53.5 40.5t-35.5 59.5t-13 75v289h38v-284q0 -37 12 -67.5t33 -52t48.5 -33t58.5 -11.5t58.5 11.5t48.5 33t33 52t12 67.5v284h38v-289q0 -41 -13 -75t-35.5 -59.5t-53.5 -40.5t-67 -18v-208h-42z" />
    <glyph glyph-name="ydieresis" unicode="&#xff;" horiz-adv-x="500" 
d="M137 592q0 14 10 24t24 10t24 -10t10 -24t-10 -24t-24 -10t-24 10t-10 24zM295 592q0 14 10 24t24 10t24 -10t10 -24t-10 -24t-24 -10t-24 10t-10 24zM229 -216v208q-36 3 -67 18t-53.5 40.5t-35.5 59.5t-13 75v289h38v-284q0 -37 12 -67.5t33 -52t48.5 -33t58.5 -11.5
t58.5 11.5t48.5 33t33 52t12 67.5v284h38v-289q0 -41 -13 -75t-35.5 -59.5t-53.5 -40.5t-67 -18v-208h-42z" />
    <glyph glyph-name="yen" unicode="&#xa5;" 
d="M43 326h215q0 15 0.5 33t-4.5 33h-211v40h203q-11 50 -35.5 92t-56.5 72t-69 47t-73 17v40q45 0 88 -19.5t79 -52t61.5 -75.5t36.5 -90h2q11 47 36.5 90t61.5 75.5t79 52t88 19.5v-40q-36 0 -73 -17t-69 -47t-56.5 -72t-35.5 -92h203v-40h-211q-5 -15 -4.5 -33t0.5 -33
h215v-40h-215v-286h-40v286h-215v40z" />
    <glyph glyph-name="z" unicode="z" horiz-adv-x="389" 
d="M42 474h272q42 0 42 -43q0 -11 -4 -22.5t-19 -30.5l-253 -306q-6 -8 -10 -12.5t-4 -11.5q0 -5 5 -7.5t13 -2.5h284v-38h-304q-42 0 -42 43q0 11 4 22.5t19 30.5l253 306q6 8 10 12.5t4 11.5q0 5 -5 7.5t-13 2.5h-252v38z" />
    <glyph glyph-name="zero" unicode="0" 
d="M92 226q0 -44 12.5 -80t36.5 -62.5t58.5 -41t78.5 -14.5t78.5 14.5t58.5 41t36.5 62.5t12.5 80v248q0 43 -12.5 79.5t-36.5 63t-58.5 41t-78.5 14.5t-78.5 -14.5t-58.5 -41t-36.5 -63t-12.5 -79.5v-248zM508 238q0 -56 -15 -102t-44.5 -79t-72.5 -51t-98 -18
q-56 0 -98.5 18t-72 51t-44.5 79t-15 102v224q0 55 15 101t44.5 79t72 51.5t98.5 18.5q55 0 98 -18.5t72.5 -51.5t44.5 -79t15 -101v-224z" />
    <glyph glyph-name="Eth" unicode="&#xd0;" horiz-adv-x="611" 
d="M141 0v38h97q68 0 122 26t91 69.5t56.5 99.5t19.5 117q0 65 -24.5 122t-68 99t-103.5 66.5t-131 24.5h-94v-278h244v-36h-244v-348h-42v348h-74v36h74v316h152q70 0 134 -25.5t113 -71.5t78.5 -110.5t29.5 -142.5q0 -80 -26 -144.5t-70.5 -110t-104.5 -70.5t-128 -25
h-101z" />
    <glyph glyph-name="Lslash" unicode="&#x141;" horiz-adv-x="389" 
d="M391 0h-147q-32 0 -64.5 13t-58 39t-41.5 64.5t-16 89.5v162l-76 -36v40l76 36v292h42v-272l158 74v-40l-158 -74v-180q0 -37 11 -68.5t30.5 -54.5t47.5 -36t63 -13h133v-36z" />
    <glyph glyph-name="Scaron" unicode="&#x160;" 
d="M304 741h-54l-107 138h40l94 -114l94 114h42zM473 662h-232q-44 0 -73.5 -8.5t-47.5 -24.5t-25.5 -39t-7.5 -51q0 -40 18.5 -66.5t48.5 -43.5t68 -29l78 -23.5t78 -25.5t68 -36t48.5 -55t18.5 -83q0 -88 -57.5 -132.5t-160.5 -44.5h-252v38h246q86 0 133 34t47 99
q0 44 -18.5 72.5t-48.5 47.5t-68 31t-78 23t-78 24.5t-68 35t-48.5 54.5t-18.5 84q0 40 14.5 69.5t39 49t57.5 29t71 9.5h248v-38z" />
    <glyph glyph-name="Thorn" unicode="&#xde;" horiz-adv-x="500" 
d="M139 196h136q37 0 68.5 12t54 35t35.5 55.5t13 74.5t-13 74.5t-35.5 55.5t-54 35t-68.5 12q-38 0 -69.5 -13t-54.5 -35.5t-36 -52t-13 -63.5v-386h-42v700h42v-188h2q25 33 67.5 54.5t101.5 21.5q46 0 85.5 -14.5t69 -42t46 -67.5t16.5 -91t-16.5 -91t-45.5 -67.5
t-68.5 -42t-84.5 -14.5h-136v38z" />
    <glyph glyph-name="Yacute" unicode="&#xdd;" 
d="M221 741l119 138h51l-133 -138h-37zM492 700v-191q0 -50 -16 -90.5t-43 -68.5t-62 -43t-72 -15v-292h-42v292q-38 0 -72.5 15t-61.5 43t-43 68.5t-16 90.5v191h42v-194q0 -40 13 -72.5t35.5 -55.5t54 -35.5t69.5 -12.5q37 0 69 12.5t54.5 35.5t35.5 55.5t13 72.5v194h42z
" />
    <glyph glyph-name="Zcaron" unicode="&#x17d;" horiz-adv-x="500" 
d="M276 741h-54l-107 138h40l94 -114l94 114h42zM470 0h-391q-32 0 -45.5 11.5t-13.5 32.5q0 18 6.5 33t21.5 37l350 495q13 17 16.5 25t3.5 16q0 12 -16 12h-344v38h343q61 0 61 -44q0 -23 -8 -39t-25 -39l-356 -505q-6 -8 -7.5 -12.5t-1.5 -9.5q0 -13 18 -13h388v-38z" />
    <glyph glyph-name="brokenbar" unicode="&#xa6;" horiz-adv-x="222" 
d="M131 700v-268h-40v268h40zM131 268v-268h-40v268h40z" />
    <glyph glyph-name="eth" unicode="&#xf0;" 
d="M138 712q31 -14 63.5 -32t64.5 -40l98 72l19 -26l-89 -66q45 -32 85.5 -71.5t71 -85t49 -97t18.5 -108.5q0 -62 -18.5 -112t-50.5 -84.5t-76.5 -53t-95.5 -18.5t-94.5 19t-76 52t-50.5 78t-18 97q0 50 18 95t50.5 79t76 54t94.5 20q26 0 42.5 -3t28.5 -8l44 -61v-2
q-23 18 -51.5 28t-63.5 10q-44 0 -81 -17.5t-63 -47t-40.5 -68.5t-14.5 -81t15 -80t41.5 -66.5t63 -45t79.5 -16.5t80 16.5t64 46.5t42 71t15 90q0 53 -17.5 102t-46.5 93t-68.5 82t-82.5 70l-108 -79l-19 26l99 73q-30 21 -60 38t-59 31z" />
    <glyph glyph-name="lslash" unicode="&#x142;" horiz-adv-x="222" 
d="M220 450l-90 -45v-405h-38v386l-90 -44v42l90 44v272h38v-253l90 45v-42z" />
    <glyph glyph-name="minus" unicode="&#x2212;" horiz-adv-x="600" 
d="M64 217v40h472v-40h-472z" />
    <glyph glyph-name="multiply" unicode="&#xd7;" horiz-adv-x="600" 
d="M300 210l-208 -210l-28 26l210 211l-210 211l28 26l208 -210l208 210l28 -26l-210 -211l210 -211l-28 -26z" />
    <glyph glyph-name="onehalf" unicode="&#xbd;" horiz-adv-x="834" 
d="M90 705h95v-420h-34v388h-67zM138 -12l462 724h39l-464 -724h-37zM815 0h-265q-14 0 -21 8.5t-7 22.5q0 15 19 33t47.5 38l61.5 42.5t61.5 46.5t47.5 49t19 52q0 48 -26 75.5t-85 27.5t-85 -27t-26 -74q0 -18 8 -35t22.5 -29t35 -18t46.5 -2l1 -2q-8 -9 -17.5 -18.5
t-17.5 -9.5q-14 0 -33.5 7t-37.5 21.5t-30.5 36t-12.5 50.5q0 61 37.5 96.5t109.5 35.5q28 0 55 -7t47 -23t32.5 -42t12.5 -63q0 -29 -19 -57.5t-47.5 -54.5t-62 -49l-62 -41.5t-47.5 -32t-19 -20.5q0 -5 6 -5h252v-32z" />
    <glyph glyph-name="onequarter" unicode="&#xbc;" horiz-adv-x="834" 
d="M71 706h99v-424h-34v392h-72zM163 -12l462 724h39l-464 -724h-37zM713 394l30 31q2 2 3 2t1 -4v-283h68v-32h-68v-108h-33v108h-190q-33 0 -33 30q0 13 5.5 22.5t20.5 32.5l154 234h37l-178 -269q-2 -2 -2.5 -3.5t-0.5 -6.5q0 -8 10 -8h176v254z" />
    <glyph glyph-name="onesuperior" unicode="&#xb9;" horiz-adv-x="333" 
d="M90 705h95v-420h-34v388h-67z" />
    <glyph glyph-name="scaron" unicode="&#x161;" horiz-adv-x="444" 
d="M248 534h-54l-107 138h40l94 -114l94 114h42zM38 36h212q63 0 89 22t26 58q0 39 -24.5 60.5t-60.5 33.5t-79 20.5t-79 22t-60.5 38t-24.5 68.5q0 23 8 44t23.5 36.5t38 25t51.5 9.5h213v-36h-210q-31 0 -56.5 -19.5t-25.5 -58.5q0 -35 24.5 -53.5t60.5 -29t79 -19t79 -23
t60.5 -40.5t24.5 -73q0 -63 -43.5 -92.5t-122.5 -29.5h-203v36z" />
    <glyph glyph-name="thorn" unicode="&#xfe;" 
d="M60 -228v928h38v-324h2q29 51 79.5 79.5t111.5 28.5q48 0 90.5 -18.5t73.5 -51.5t49 -78t18 -99t-18 -99t-49 -78t-73.5 -51.5t-90.5 -18.5q-27 0 -49.5 6t-41 15t-32.5 19.5l-25 19.5v45q31 -32 65.5 -50.5t82.5 -18.5q36 0 70.5 16t61 44t43 66.5t16.5 84.5t-16.5 84.5
t-43 66.5t-61 44t-70.5 16q-43 0 -78.5 -17.5t-61 -47t-39.5 -67.5t-14 -79v-465h-38z" />
    <glyph glyph-name="threequarters" unicode="&#xbe;" horiz-adv-x="834" 
d="M196 -12l462 724h39l-464 -724h-37zM713 396l30 31q2 2 3 2t1 -4v-283h68v-32h-68v-108h-33v108h-190q-33 0 -33 30q0 13 5.5 22.5t20.5 32.5l154 234h37l-178 -269q-2 -2 -2.5 -3.5t-0.5 -6.5q0 -8 10 -8h176v254zM27 705h207q22 0 28.5 -6.5t6.5 -15.5q0 -19 -16 -32
l-138 -120h49q33 0 59 -9.5t44 -25.5t27 -38t9 -47q0 -63 -40 -94.5t-109 -31.5h-130v32h145q45 0 70.5 24t25.5 63q0 43 -25.5 69t-83.5 26h-81v34l144 127q8 7 8 9q0 4 -3 4h-197v32z" />
    <glyph glyph-name="threesuperior" unicode="&#xb3;" horiz-adv-x="333" 
d="M27 705h207q22 0 28.5 -6.5t6.5 -15.5q0 -19 -16 -32l-138 -120h49q33 0 59 -9.5t44 -25.5t27 -38t9 -47q0 -63 -40 -94.5t-109 -31.5h-130v32h145q45 0 70.5 24t25.5 63q0 43 -25.5 69t-83.5 26h-81v34l144 127q8 7 8 9q0 4 -3 4h-197v32z" />
    <glyph glyph-name="twosuperior" unicode="&#xb2;" horiz-adv-x="333" 
d="M305 285h-265q-14 0 -21 8.5t-7 22.5q0 15 19 33t47.5 38l61.5 42.5t61.5 46.5t47.5 49t19 52q0 48 -26 75.5t-85 27.5t-85 -27t-26 -74q0 -18 8 -35t22.5 -29t35 -18t46.5 -2l1 -2q-8 -9 -17.5 -18.5t-17.5 -9.5q-14 0 -33.5 7t-37.5 21.5t-30.5 36t-12.5 50.5
q0 61 37.5 96.5t109.5 35.5q28 0 55 -7t47 -23t32.5 -42t12.5 -63q0 -29 -19 -57.5t-47.5 -54.5t-62 -49l-62 -41.5t-47.5 -32t-19 -20.5q0 -5 6 -5h252v-32z" />
    <glyph glyph-name="yacute" unicode="&#xfd;" horiz-adv-x="500" 
d="M193 534l119 138h51l-133 -138h-37zM229 -216v208q-36 3 -67 18t-53.5 40.5t-35.5 59.5t-13 75v289h38v-284q0 -37 12 -67.5t33 -52t48.5 -33t58.5 -11.5t58.5 11.5t48.5 33t33 52t12 67.5v284h38v-289q0 -41 -13 -75t-35.5 -59.5t-53.5 -40.5t-67 -18v-208h-42z" />
    <glyph glyph-name="zcaron" unicode="&#x17e;" horiz-adv-x="389" 
d="M221 534h-54l-107 138h40l94 -114l94 114h42zM42 474h272q42 0 42 -43q0 -11 -4 -22.5t-19 -30.5l-253 -306q-6 -8 -10 -12.5t-4 -11.5q0 -5 5 -7.5t13 -2.5h284v-38h-304q-42 0 -42 43q0 11 4 22.5t19 30.5l253 306q6 8 10 12.5t4 11.5q0 5 -5 7.5t-13 2.5h-252v38z" />
    <glyph glyph-name="nonbreakingspace" horiz-adv-x="278" 
 />
    <glyph glyph-name="Euro" 
d="M525 0h-89q-59 0 -115.5 18.5t-103 55t-79 90t-43.5 122.5h-75l7 40h64q-1 6 -1 12v12q0 11 0.5 21t1.5 21h-72l7 40h71q13 65 46.5 115t79 84t100.5 51.5t112 17.5h96l-6 -36h-82q-48 0 -95.5 -14t-89 -43t-72.5 -72.5t-44 -102.5h344l-7 -40h-344q-2 -11 -2 -21v-21
v-12t1 -12h334l-7 -40h-323q11 -64 41.5 -111t72.5 -78t91.5 -46t99.5 -15h81v-36z" />
    <glyph glyph-name="Euro" unicode="&#x20ac;" 
d="M525 0h-89q-59 0 -115.5 18.5t-103 55t-79 90t-43.5 122.5h-75l7 40h64q-1 6 -1 12v12q0 11 0.5 21t1.5 21h-72l7 40h71q13 65 46.5 115t79 84t100.5 51.5t112 17.5h96l-6 -36h-82q-48 0 -95.5 -14t-89 -43t-72.5 -72.5t-44 -102.5h344l-7 -40h-344q-2 -11 -2 -21v-21
v-12t1 -12h334l-7 -40h-323q11 -64 41.5 -111t72.5 -78t91.5 -46t99.5 -15h81v-36z" />
    </font>
</defs>
</svg>
